<?xml version="1.0" encoding="UTF-8"?>
<svg width="470px" height="48px" viewBox="0 0 470 48" version="1.1" xmlns="http://www.w3.org/2000/svg" xmlns:xlink="http://www.w3.org/1999/xlink">
    <!-- Generator: Sketch 64 (93537) - https://sketch.com -->
    <title>covid19_SupportForTravelers</title>
    <desc>Created with Sketch.</desc>
    <defs>
        <path d="M3.0703125,8.078125 C3.63802083,8.078125 4.14583333,7.99348958 4.59375,7.82421875 L4.59375,7.82421875 L4.59375,7.0234375 C4.34895833,7.09895833 4.11328125,7.16080729 3.88671875,7.20898438 C3.66015625,7.25716146 3.42578125,7.28125 3.18359375,7.28125 C2.62369792,7.28125 2.19596354,7.1015625 1.90039062,6.7421875 C1.60481771,6.3828125 1.45703125,5.85286458 1.45703125,5.15234375 C1.45703125,4.48307292 1.61067708,3.95833333 1.91796875,3.578125 C2.22526042,3.19791667 2.64713542,3.0078125 3.18359375,3.0078125 C3.42057292,3.0078125 3.64648438,3.04231771 3.86132812,3.11132812 C4.07617188,3.18033854 4.27994792,3.26041667 4.47265625,3.3515625 L4.47265625,3.3515625 L4.80859375,2.57421875 C4.31380208,2.32942708 3.77473958,2.20703125 3.19140625,2.20703125 C2.63671875,2.20703125 2.15364583,2.32552083 1.7421875,2.5625 C1.33072917,2.79947917 1.01627604,3.140625 0.798828125,3.5859375 C0.581380208,4.03125 0.47265625,4.55078125 0.47265625,5.14453125 C0.47265625,6.08723958 0.696614583,6.81184896 1.14453125,7.31835938 C1.59244792,7.82486979 2.234375,8.078125 3.0703125,8.078125 Z M9.15340909,8.078125 C10.0049716,8.078125 10.6631747,7.8203125 11.1280185,7.3046875 C11.5928622,6.7890625 11.8252841,6.06640625 11.8252841,5.13671875 C11.8252841,4.20442708 11.5935133,3.48177083 11.1299716,2.96875 C10.6664299,2.45572917 10.0101799,2.19921875 9.16122159,2.19921875 C8.29924242,2.19921875 7.63583097,2.45182292 7.17098722,2.95703125 C6.70614347,3.46223958 6.47372159,4.18619792 6.47372159,5.12890625 C6.47372159,6.07161458 6.70484138,6.79882812 7.16708097,7.31054688 C7.62932055,7.82226562 8.29142992,8.078125 9.15340909,8.078125 Z M9.15340909,7.28125 C8.59611742,7.28125 8.17554451,7.09960938 7.89169034,6.73632812 C7.60783617,6.37304688 7.46590909,5.83984375 7.46590909,5.13671875 C7.46590909,4.43619792 7.60848722,3.90494792 7.89364347,3.54296875 C8.17879972,3.18098958 8.60132576,3 9.16122159,3 C9.71590909,3 10.1332268,3.18098958 10.4131747,3.54296875 C10.6931226,3.90494792 10.8330966,4.43619792 10.8330966,5.13671875 C10.8330966,5.84765625 10.6918205,6.3828125 10.4092685,6.7421875 C10.1267164,7.1015625 9.70809659,7.28125 9.15340909,7.28125 Z M16.2872869,8 L18.2872869,2.2890625 L17.3185369,2.2890625 L16.1271307,5.82421875 C16.0828598,5.94921875 16.0255682,6.14192708 15.9552557,6.40234375 C15.8849432,6.66276042 15.8328598,6.89192708 15.7990057,7.08984375 C15.7781723,6.95963542 15.7325994,6.76106771 15.6622869,6.49414062 C15.5919744,6.22721354 15.5255682,6.00911458 15.4630682,5.83984375 L15.4630682,5.83984375 L14.2716619,2.2890625 L13.3107244,2.2890625 L15.3029119,8 L16.2872869,8 Z M21.065696,8 L21.065696,2.2890625 L20.1321023,2.2890625 L20.1321023,8 L21.065696,8 Z M25.2620739,8 C26.2464489,8 27.0003551,7.75065104 27.5237926,7.25195312 C28.0472301,6.75325521 28.3089489,6.03255208 28.3089489,5.08984375 C28.3089489,4.20182292 28.0563447,3.51302083 27.5511364,3.0234375 C27.045928,2.53385417 26.3388968,2.2890625 25.4300426,2.2890625 L25.4300426,2.2890625 L23.6644176,2.2890625 L23.6644176,8 L25.2620739,8 Z M25.2620739,7.21484375 L24.5980114,7.21484375 L24.5980114,3.0703125 L25.4066051,3.0703125 C26.6852509,3.0703125 27.3245739,3.75390625 27.3245739,5.12109375 C27.3245739,6.51692708 26.6370739,7.21484375 25.2620739,7.21484375 L25.2620739,7.21484375 Z M32.1615767,6.24609375 L32.1615767,5.46484375 L30.1537642,5.46484375 L30.1537642,6.24609375 L32.1615767,6.24609375 Z M36.584517,8 L36.584517,2.2890625 L35.818892,2.2890625 L34.1392045,3.609375 L34.600142,4.19140625 C35.0975379,3.78776042 35.3898556,3.54817708 35.4770952,3.47265625 C35.5643348,3.39713542 35.6379025,3.328125 35.6977983,3.265625 C35.676965,3.5234375 35.6665483,3.87239583 35.6665483,4.3125 L35.6665483,4.3125 L35.6665483,8 L36.584517,8 Z M40.6832386,8.078125 C41.594697,8.078125 42.2769886,7.80078125 42.7301136,7.24609375 C43.1832386,6.69140625 43.4098011,5.8515625 43.4098011,4.7265625 C43.4098011,4.20052083 43.3277699,3.74934896 43.1637074,3.37304688 C42.9996449,2.99674479 42.766572,2.70963542 42.4644886,2.51171875 C42.1624053,2.31380208 41.8082386,2.21484375 41.4019886,2.21484375 C40.8238636,2.21484375 40.3674834,2.39127604 40.032848,2.74414062 C39.6982126,3.09700521 39.5308949,3.57161458 39.5308949,4.16796875 C39.5308949,4.71744792 39.6754261,5.14973958 39.9644886,5.46484375 C40.2535511,5.77994792 40.6506866,5.9375 41.1558949,5.9375 C41.4475616,5.9375 41.7021188,5.88541667 41.9195668,5.78125 C42.1370147,5.67708333 42.3225616,5.5078125 42.4762074,5.2734375 L42.4762074,5.2734375 L42.5230824,5.2734375 C42.4944366,5.98697917 42.3277699,6.51041667 42.0230824,6.84375 C41.7183949,7.17708333 41.2561553,7.34375 40.6363636,7.34375 C40.4019886,7.34375 40.1689157,7.31119792 39.9371449,7.24609375 L39.9371449,7.24609375 L39.9371449,8.015625 C40.0881866,8.05729167 40.3368845,8.078125 40.6832386,8.078125 Z M41.3863636,5.20703125 C41.0660511,5.20703125 40.8271188,5.11393229 40.6695668,4.92773438 C40.5120147,4.74153646 40.4332386,4.48567708 40.4332386,4.16015625 C40.4332386,3.78515625 40.5178741,3.49414062 40.6871449,3.28710938 C40.8564157,3.08007812 41.0999053,2.9765625 41.4176136,2.9765625 C41.625947,2.9765625 41.8108428,3.03515625 41.9723011,3.15234375 C42.1337595,3.26953125 42.2594105,3.42903646 42.3492543,3.63085938 C42.439098,3.83268229 42.4840199,4.04947917 42.4840199,4.28125 C42.4840199,4.52864583 42.3785511,4.74479167 42.1676136,4.9296875 C41.9566761,5.11458333 41.6962595,5.20703125 41.3863636,5.20703125 Z M49.7088068,8 L49.7088068,5.71875 L50.6306818,5.71875 L51.9978693,8 L53.0603693,8 L51.4470881,5.47265625 C52.1866714,5.17057292 52.5564631,4.6640625 52.5564631,3.953125 C52.5564631,3.39583333 52.3793797,2.97916667 52.0252131,2.703125 C51.6710464,2.42708333 51.1254735,2.2890625 50.3884943,2.2890625 L50.3884943,2.2890625 L48.7752131,2.2890625 L48.7752131,8 L49.7088068,8 Z M50.3572443,4.9453125 L49.7088068,4.9453125 L49.7088068,3.078125 L50.3259943,3.078125 C50.7504735,3.078125 51.0681818,3.1484375 51.2791193,3.2890625 C51.4900568,3.4296875 51.5955256,3.66145833 51.5955256,3.984375 C51.5955256,4.30208333 51.4978693,4.54166667 51.3025568,4.703125 C51.1072443,4.86458333 50.7921402,4.9453125 50.3572443,4.9453125 L50.3572443,4.9453125 Z M58.2098722,8 L58.2098722,7.20703125 L55.9129972,7.20703125 L55.9129972,5.4140625 L58.0653409,5.4140625 L58.0653409,4.6328125 L55.9129972,4.6328125 L55.9129972,3.078125 L58.2098722,3.078125 L58.2098722,2.2890625 L54.9794034,2.2890625 L54.9794034,8 L58.2098722,8 Z M61.7578125,8.078125 C62.4036458,8.078125 62.9101563,7.93359375 63.2773438,7.64453125 C63.6445313,7.35546875 63.828125,6.95703125 63.828125,6.44921875 C63.828125,6.19140625 63.7825521,5.96744792 63.6914063,5.77734375 C63.6002604,5.58723958 63.4570313,5.41666667 63.2617188,5.265625 C63.0664063,5.11458333 62.7591146,4.95182292 62.3398438,4.77734375 C61.9674479,4.62369792 61.7096354,4.5 61.5664063,4.40625 C61.4231771,4.3125 61.3203125,4.21289062 61.2578125,4.10742188 C61.1953125,4.00195312 61.1640625,3.875 61.1640625,3.7265625 C61.1640625,3.51041667 61.2421875,3.33658854 61.3984375,3.20507812 C61.5546875,3.07356771 61.7838542,3.0078125 62.0859375,3.0078125 C62.484375,3.0078125 62.9375,3.11458333 63.4453125,3.328125 L63.4453125,3.328125 L63.7421875,2.56640625 C63.2005208,2.32682292 62.65625,2.20703125 62.109375,2.20703125 C61.5390625,2.20703125 61.0846354,2.34375 60.7460938,2.6171875 C60.4075521,2.890625 60.2382813,3.265625 60.2382813,3.7421875 C60.2382813,4.12239583 60.3450521,4.44791667 60.5585938,4.71875 C60.7721354,4.98958333 61.1393229,5.23046875 61.6601563,5.44140625 C62.1653646,5.64453125 62.4986979,5.8203125 62.6601563,5.96875 C62.8216146,6.1171875 62.9023438,6.29817708 62.9023438,6.51171875 C62.9023438,6.74869792 62.8144531,6.9375 62.6386719,7.078125 C62.4628906,7.21875 62.1901042,7.2890625 61.8203125,7.2890625 C61.5677083,7.2890625 61.2949219,7.25390625 61.0019531,7.18359375 C60.7089844,7.11328125 60.4322917,7.01692708 60.171875,6.89453125 L60.171875,6.89453125 L60.171875,7.77734375 C60.5833333,7.97786458 61.1119792,8.078125 61.7578125,8.078125 Z M66.9580966,8 L66.9580966,5.86328125 L67.5518466,5.86328125 C68.2732008,5.86328125 68.8291903,5.70442708 69.2198153,5.38671875 C69.6104403,5.06901042 69.8057528,4.61197917 69.8057528,4.015625 C69.8057528,3.44791667 69.6280185,3.01822917 69.2725497,2.7265625 C68.917081,2.43489583 68.3825758,2.2890625 67.6690341,2.2890625 L67.6690341,2.2890625 L66.0245028,2.2890625 L66.0245028,8 L66.9580966,8 Z M67.4541903,5.078125 L66.9580966,5.078125 L66.9580966,3.0703125 L67.6065341,3.0703125 C68.0310133,3.0703125 68.3435133,3.15104167 68.5440341,3.3125 C68.7445549,3.47395833 68.8448153,3.71875 68.8448153,4.046875 C68.8448153,4.40104167 68.7328362,4.66145833 68.5088778,4.828125 C68.2849195,4.99479167 67.933357,5.078125 67.4541903,5.078125 L67.4541903,5.078125 Z M74.4357244,8.078125 C75.2872869,8.078125 75.9454901,7.8203125 76.4103338,7.3046875 C76.8751776,6.7890625 77.1075994,6.06640625 77.1075994,5.13671875 C77.1075994,4.20442708 76.8758286,3.48177083 76.4122869,2.96875 C75.9487453,2.45572917 75.2924953,2.19921875 74.4435369,2.19921875 C73.5815578,2.19921875 72.9181463,2.45182292 72.4533026,2.95703125 C71.9884588,3.46223958 71.7560369,4.18619792 71.7560369,5.12890625 C71.7560369,6.07161458 71.9871567,6.79882812 72.4493963,7.31054688 C72.9116359,7.82226562 73.5737453,8.078125 74.4357244,8.078125 Z M74.4357244,7.28125 C73.8784328,7.28125 73.4578598,7.09960938 73.1740057,6.73632812 C72.8901515,6.37304688 72.7482244,5.83984375 72.7482244,5.13671875 C72.7482244,4.43619792 72.8908026,3.90494792 73.1759588,3.54296875 C73.4611151,3.18098958 73.8836411,3 74.4435369,3 C74.9982244,3 75.4155421,3.18098958 75.6954901,3.54296875 C75.975438,3.90494792 76.1154119,4.43619792 76.1154119,5.13671875 C76.1154119,5.84765625 75.9741359,6.3828125 75.6915838,6.7421875 C75.4090317,7.1015625 74.9904119,7.28125 74.4357244,7.28125 Z M80.2727273,8 L80.2727273,5.03125 C80.2727273,4.63020833 80.2544981,4.1875 80.2180398,3.703125 L80.2180398,3.703125 L80.1985085,3.44921875 L80.2297585,3.44921875 L83.0383523,8 L84.1828835,8 L84.1828835,2.2890625 L83.3274148,2.2890625 L83.3274148,5.28125 C83.3274148,5.4921875 83.3352273,5.78580729 83.3508523,6.16210938 C83.3664773,6.53841146 83.3768939,6.75651042 83.3821023,6.81640625 L83.3821023,6.81640625 L83.3586648,6.81640625 L80.5578835,2.2890625 L79.425071,2.2890625 L79.425071,8 L80.2727273,8 Z M88.0042614,8.078125 C88.6500947,8.078125 89.1566051,7.93359375 89.5237926,7.64453125 C89.8909801,7.35546875 90.0745739,6.95703125 90.0745739,6.44921875 C90.0745739,6.19140625 90.0290009,5.96744792 89.9378551,5.77734375 C89.8467093,5.58723958 89.7034801,5.41666667 89.5081676,5.265625 C89.3128551,5.11458333 89.0055634,4.95182292 88.5862926,4.77734375 C88.2138968,4.62369792 87.9560843,4.5 87.8128551,4.40625 C87.6696259,4.3125 87.5667614,4.21289062 87.5042614,4.10742188 C87.4417614,4.00195312 87.4105114,3.875 87.4105114,3.7265625 C87.4105114,3.51041667 87.4886364,3.33658854 87.6448864,3.20507812 C87.8011364,3.07356771 88.030303,3.0078125 88.3323864,3.0078125 C88.7308239,3.0078125 89.1839489,3.11458333 89.6917614,3.328125 L89.6917614,3.328125 L89.9886364,2.56640625 C89.4469697,2.32682292 88.9026989,2.20703125 88.3558239,2.20703125 C87.7855114,2.20703125 87.3310843,2.34375 86.9925426,2.6171875 C86.6540009,2.890625 86.4847301,3.265625 86.4847301,3.7421875 C86.4847301,4.12239583 86.5915009,4.44791667 86.8050426,4.71875 C87.0185843,4.98958333 87.3857718,5.23046875 87.9066051,5.44140625 C88.4118134,5.64453125 88.7451468,5.8203125 88.9066051,5.96875 C89.0680634,6.1171875 89.1487926,6.29817708 89.1487926,6.51171875 C89.1487926,6.74869792 89.060902,6.9375 88.8851207,7.078125 C88.7093395,7.21875 88.436553,7.2890625 88.0667614,7.2890625 C87.8141572,7.2890625 87.5413707,7.25390625 87.248402,7.18359375 C86.9554332,7.11328125 86.6787405,7.01692708 86.4183239,6.89453125 L86.4183239,6.89453125 L86.4183239,7.77734375 C86.8297822,7.97786458 87.358428,8.078125 88.0042614,8.078125 Z M95.5014205,8 L95.5014205,7.20703125 L93.2045455,7.20703125 L93.2045455,5.4140625 L95.3568892,5.4140625 L95.3568892,4.6328125 L93.2045455,4.6328125 L93.2045455,3.078125 L95.5014205,3.078125 L95.5014205,2.2890625 L92.2709517,2.2890625 L92.2709517,8 L95.5014205,8 Z" id="path-1"></path>
        <path d="M6.69726562,33.2636719 C8.9296875,33.2636719 10.6721191,32.7626953 11.9245605,31.7607422 C13.177002,30.7587891 13.8032227,29.3876953 13.8032227,27.6474609 C13.8032227,26.390625 13.4692383,25.3293457 12.8012695,24.463623 C12.1333008,23.5979004 10.8984375,22.734375 9.09667969,21.8730469 C7.734375,21.2226562 6.87084961,20.7722168 6.50610352,20.5217285 C6.14135742,20.2712402 5.87548828,20.0119629 5.70849609,19.7438965 C5.54150391,19.4758301 5.45800781,19.1616211 5.45800781,18.8012695 C5.45800781,18.2211914 5.66455078,17.7509766 6.07763672,17.390625 C6.49072266,17.0302734 7.08398438,16.8500977 7.85742188,16.8500977 C8.5078125,16.8500977 9.16918945,16.9335938 9.84155273,17.1005859 C10.513916,17.2675781 11.3642578,17.5620117 12.3925781,17.9838867 L12.3925781,17.9838867 L13.7109375,14.8066406 C12.7177734,14.3759766 11.7663574,14.0419922 10.8566895,13.8046875 C9.94702148,13.5673828 8.99121094,13.4487305 7.98925781,13.4487305 C5.95019531,13.4487305 4.3527832,13.9365234 3.19702148,14.9121094 C2.04125977,15.8876953 1.46337891,17.2280273 1.46337891,18.9331055 C1.46337891,19.8383789 1.63916016,20.6293945 1.99072266,21.3061523 C2.34228516,21.9829102 2.8125,22.5761719 3.40136719,23.0859375 C3.99023438,23.5957031 4.87353516,24.1274414 6.05126953,24.6811523 C7.30810547,25.2788086 8.14086914,25.7138672 8.54956055,25.9863281 C8.95825195,26.2587891 9.26806641,26.5422363 9.47900391,26.8366699 C9.68994141,27.1311035 9.79541016,27.4672852 9.79541016,27.8452148 C9.79541016,28.5219727 9.5559082,29.0317383 9.0769043,29.3745117 C8.59790039,29.7172852 7.91015625,29.8886719 7.01367188,29.8886719 C6.26660156,29.8886719 5.44262695,29.7700195 4.54174805,29.5327148 C3.64086914,29.2954102 2.54003906,28.8867188 1.23925781,28.3066406 L1.23925781,28.3066406 L1.23925781,32.1035156 C2.82128906,32.8769531 4.640625,33.2636719 6.69726562,33.2636719 Z M22.1352539,33.2636719 C23.1459961,33.2636719 24.046875,33.0769043 24.8378906,32.7033691 C25.6289062,32.329834 26.2397461,31.800293 26.6704102,31.1147461 L26.6704102,31.1147461 L26.8813477,31.1147461 L27.421875,33 L30.5068359,33 L30.5068359,18.2607422 L26.4858398,18.2607422 L26.4858398,25.1953125 C26.4858398,26.9355469 26.2353516,28.1813965 25.734375,28.9328613 C25.2333984,29.6843262 24.4204102,30.0600586 23.2954102,30.0600586 C22.4692383,30.0600586 21.8671875,29.7941895 21.4892578,29.2624512 C21.1113281,28.7307129 20.9223633,27.9331055 20.9223633,26.8696289 L20.9223633,26.8696289 L20.9223633,18.2607422 L16.9013672,18.2607422 L16.9013672,27.871582 C16.9013672,29.6118164 17.3408203,30.9455566 18.2197266,31.8728027 C19.0986328,32.8000488 20.4038086,33.2636719 22.1352539,33.2636719 Z M38.746582,39.4863281 L38.746582,33.5141602 C38.746582,33.3208008 38.6762695,32.6088867 38.5356445,31.378418 L38.5356445,31.378418 L38.746582,31.378418 C39.730957,32.6352539 41.0888672,33.2636719 42.8203125,33.2636719 C43.9716797,33.2636719 44.9736328,32.9604492 45.8261719,32.3540039 C46.6787109,31.7475586 47.3356934,30.8642578 47.7971191,29.7041016 C48.2585449,28.5439453 48.4892578,27.1772461 48.4892578,25.6040039 C48.4892578,23.2133789 47.9970703,21.3457031 47.0126953,20.0009766 C46.0283203,18.65625 44.6660156,17.9838867 42.9257812,17.9838867 C41.0800781,17.9838867 39.6870117,18.7133789 38.746582,20.1723633 L38.746582,20.1723633 L38.5620117,20.1723633 L37.9951172,18.2607422 L34.7255859,18.2607422 L34.7255859,39.4863281 L38.746582,39.4863281 Z M41.6865234,30.0073242 C40.6669922,30.0073242 39.9221191,29.6645508 39.4519043,28.9790039 C38.9816895,28.293457 38.746582,27.159668 38.746582,25.5776367 L38.746582,25.5776367 L38.746582,25.1425781 C38.7641602,23.7363281 39.0014648,22.7277832 39.4584961,22.1169434 C39.9155273,21.5061035 40.640625,21.2006836 41.6337891,21.2006836 C42.5830078,21.2006836 43.279541,21.5632324 43.7233887,22.2883301 C44.1672363,23.0134277 44.3891602,24.1010742 44.3891602,25.5512695 C44.3891602,28.5219727 43.4882812,30.0073242 41.6865234,30.0073242 Z M55.8325195,39.4863281 L55.8325195,33.5141602 C55.8325195,33.3208008 55.762207,32.6088867 55.621582,31.378418 L55.621582,31.378418 L55.8325195,31.378418 C56.8168945,32.6352539 58.1748047,33.2636719 59.90625,33.2636719 C61.0576172,33.2636719 62.0595703,32.9604492 62.9121094,32.3540039 C63.7646484,31.7475586 64.4216309,30.8642578 64.8830566,29.7041016 C65.3444824,28.5439453 65.5751953,27.1772461 65.5751953,25.6040039 C65.5751953,23.2133789 65.0830078,21.3457031 64.0986328,20.0009766 C63.1142578,18.65625 61.7519531,17.9838867 60.0117188,17.9838867 C58.1660156,17.9838867 56.7729492,18.7133789 55.8325195,20.1723633 L55.8325195,20.1723633 L55.6479492,20.1723633 L55.0810547,18.2607422 L51.8115234,18.2607422 L51.8115234,39.4863281 L55.8325195,39.4863281 Z M58.7724609,30.0073242 C57.7529297,30.0073242 57.0080566,29.6645508 56.5378418,28.9790039 C56.067627,28.293457 55.8325195,27.159668 55.8325195,25.5776367 L55.8325195,25.5776367 L55.8325195,25.1425781 C55.8500977,23.7363281 56.0874023,22.7277832 56.5444336,22.1169434 C57.0014648,21.5061035 57.7265625,21.2006836 58.7197266,21.2006836 C59.6689453,21.2006836 60.3654785,21.5632324 60.8093262,22.2883301 C61.2531738,23.0134277 61.4750977,24.1010742 61.4750977,25.5512695 C61.4750977,28.5219727 60.5742188,30.0073242 58.7724609,30.0073242 Z M75.1069336,33.2636719 C77.3657227,33.2636719 79.1279297,32.5869141 80.3935547,31.2333984 C81.6591797,29.8798828 82.2919922,28.003418 82.2919922,25.6040039 C82.2919922,24.0571289 82.0019531,22.7080078 81.421875,21.5566406 C80.8417969,20.4052734 80.0112305,19.5219727 78.9301758,18.9067383 C77.8491211,18.2915039 76.6010742,17.9838867 75.1860352,17.9838867 C72.909668,17.9838867 71.1430664,18.6518555 69.8862305,19.987793 C68.6293945,21.3237305 68.0009766,23.1958008 68.0009766,25.6040039 C68.0009766,27.1508789 68.2910156,28.5043945 68.8710938,29.6645508 C69.4511719,30.824707 70.2817383,31.7145996 71.362793,32.3342285 C72.4438477,32.9538574 73.6918945,33.2636719 75.1069336,33.2636719 Z M75.159668,30.0336914 C74.0786133,30.0336914 73.298584,29.6601562 72.8195801,28.9130859 C72.3405762,28.1660156 72.1010742,27.0629883 72.1010742,25.6040039 C72.1010742,24.1362305 72.3383789,23.0397949 72.8129883,22.3146973 C73.2875977,21.5895996 74.0610352,21.2270508 75.1333008,21.2270508 C76.2143555,21.2270508 76.9921875,21.5917969 77.4667969,22.3212891 C77.9414062,23.0507812 78.1787109,24.1450195 78.1787109,25.6040039 C78.1787109,27.0717773 77.9436035,28.177002 77.4733887,28.9196777 C77.0031738,29.6623535 76.2319336,30.0336914 75.159668,30.0336914 Z M89.6352539,33 L89.6352539,25.4985352 C89.6352539,24.3120117 89.9934082,23.3891602 90.7097168,22.7299805 C91.4260254,22.0708008 92.4257812,21.7412109 93.7089844,21.7412109 C94.1748047,21.7412109 94.5703125,21.7851562 94.8955078,21.8730469 L94.8955078,21.8730469 L95.1987305,18.1025391 C94.8383789,18.0234375 94.3857422,17.9838867 93.8408203,17.9838867 C92.9267578,17.9838867 92.0808105,18.2365723 91.3029785,18.7419434 C90.5251465,19.2473145 89.9077148,19.9130859 89.4506836,20.7392578 L89.4506836,20.7392578 L89.2529297,20.7392578 L88.659668,18.2607422 L85.6142578,18.2607422 L85.6142578,33 L89.6352539,33 Z M102.924316,33.2636719 C104.383301,33.2636719 105.61377,33.0395508 106.615723,32.5913086 L106.615723,32.5913086 L106.615723,29.5986328 C105.631348,29.90625 104.787598,30.0600586 104.084473,30.0600586 C103.557129,30.0600586 103.133057,29.9238281 102.812256,29.6513672 C102.491455,29.3789062 102.331055,28.9570312 102.331055,28.3857422 L102.331055,28.3857422 L102.331055,21.2797852 L106.45752,21.2797852 L106.45752,18.2607422 L102.331055,18.2607422 L102.331055,15.1230469 L99.7602539,15.1230469 L98.6000977,18.234375 L96.3852539,19.5791016 L96.3852539,21.2797852 L98.3100586,21.2797852 L98.3100586,28.3857422 C98.3100586,30.0117188 98.677002,31.2312012 99.4108887,32.0441895 C100.144775,32.8571777 101.315918,33.2636719 102.924316,33.2636719 Z M121.275879,33 L121.275879,21.2797852 L124.756348,21.2797852 L124.756348,18.2607422 L121.275879,18.2607422 L121.275879,17.3378906 C121.275879,16.8105469 121.40332,16.3776855 121.658203,16.0393066 C121.913086,15.7009277 122.326172,15.5317383 122.897461,15.5317383 C123.583008,15.5317383 124.330078,15.6591797 125.138672,15.9140625 L125.138672,15.9140625 L126.166992,12.9609375 C125.085938,12.5478516 123.851074,12.3413086 122.462402,12.3413086 C120.643066,12.3413086 119.320312,12.7280273 118.494141,13.5014648 C117.667969,14.2749023 117.254883,15.5009766 117.254883,17.1796875 L117.254883,17.1796875 L117.254883,18.2607422 L115.040039,19.3417969 L115.040039,21.2797852 L117.254883,21.2797852 L117.254883,33 L121.275879,33 Z M133.272949,33.2636719 C135.531738,33.2636719 137.293945,32.5869141 138.55957,31.2333984 C139.825195,29.8798828 140.458008,28.003418 140.458008,25.6040039 C140.458008,24.0571289 140.167969,22.7080078 139.587891,21.5566406 C139.007812,20.4052734 138.177246,19.5219727 137.096191,18.9067383 C136.015137,18.2915039 134.76709,17.9838867 133.352051,17.9838867 C131.075684,17.9838867 129.309082,18.6518555 128.052246,19.987793 C126.79541,21.3237305 126.166992,23.1958008 126.166992,25.6040039 C126.166992,27.1508789 126.457031,28.5043945 127.037109,29.6645508 C127.617188,30.824707 128.447754,31.7145996 129.528809,32.3342285 C130.609863,32.9538574 131.85791,33.2636719 133.272949,33.2636719 Z M133.325684,30.0336914 C132.244629,30.0336914 131.4646,29.6601562 130.985596,28.9130859 C130.506592,28.1660156 130.26709,27.0629883 130.26709,25.6040039 C130.26709,24.1362305 130.504395,23.0397949 130.979004,22.3146973 C131.453613,21.5895996 132.227051,21.2270508 133.299316,21.2270508 C134.380371,21.2270508 135.158203,21.5917969 135.632812,22.3212891 C136.107422,23.0507812 136.344727,24.1450195 136.344727,25.6040039 C136.344727,27.0717773 136.109619,28.177002 135.639404,28.9196777 C135.169189,29.6623535 134.397949,30.0336914 133.325684,30.0336914 Z M147.80127,33 L147.80127,25.4985352 C147.80127,24.3120117 148.159424,23.3891602 148.875732,22.7299805 C149.592041,22.0708008 150.591797,21.7412109 151.875,21.7412109 C152.34082,21.7412109 152.736328,21.7851562 153.061523,21.8730469 L153.061523,21.8730469 L153.364746,18.1025391 C153.004395,18.0234375 152.551758,17.9838867 152.006836,17.9838867 C151.092773,17.9838867 150.246826,18.2365723 149.468994,18.7419434 C148.691162,19.2473145 148.07373,19.9130859 147.616699,20.7392578 L147.616699,20.7392578 L147.418945,20.7392578 L146.825684,18.2607422 L143.780273,18.2607422 L143.780273,33 L147.80127,33 Z M170.806641,33 L170.806641,17.1269531 L176.040527,17.1269531 L176.040527,13.7255859 L161.48584,13.7255859 L161.48584,17.1269531 L166.719727,17.1269531 L166.719727,33 L170.806641,33 Z M182.711426,33 L182.711426,25.4985352 C182.711426,24.3120117 183.06958,23.3891602 183.785889,22.7299805 C184.502197,22.0708008 185.501953,21.7412109 186.785156,21.7412109 C187.250977,21.7412109 187.646484,21.7851562 187.97168,21.8730469 L187.97168,21.8730469 L188.274902,18.1025391 C187.914551,18.0234375 187.461914,17.9838867 186.916992,17.9838867 C186.00293,17.9838867 185.156982,18.2365723 184.37915,18.7419434 C183.601318,19.2473145 182.983887,19.9130859 182.526855,20.7392578 L182.526855,20.7392578 L182.329102,20.7392578 L181.73584,18.2607422 L178.69043,18.2607422 L178.69043,33 L182.711426,33 Z M194.537109,33.2636719 C195.688477,33.2636719 196.622314,33.098877 197.338623,32.7692871 C198.054932,32.4396973 198.751465,31.8486328 199.428223,30.9960938 L199.428223,30.9960938 L199.533691,30.9960938 L200.311523,33 L203.119629,33 L203.119629,23.1782227 C203.119629,21.4204102 202.592285,20.1108398 201.537598,19.2495117 C200.48291,18.3881836 198.966797,17.9575195 196.989258,17.9575195 C194.923828,17.9575195 193.042969,18.4013672 191.34668,19.2890625 L191.34668,19.2890625 L192.678223,22.0048828 C194.269043,21.2929688 195.65332,20.9370117 196.831055,20.9370117 C198.360352,20.9370117 199.125,21.684082 199.125,23.1782227 L199.125,23.1782227 L199.125,23.8242188 L196.567383,23.9033203 C194.361328,23.9824219 192.711182,24.3933105 191.616943,25.1359863 C190.522705,25.8786621 189.975586,27.0322266 189.975586,28.5966797 C189.975586,30.0908203 190.38208,31.2421875 191.195068,32.0507812 C192.008057,32.859375 193.12207,33.2636719 194.537109,33.2636719 Z M196.053223,30.3237305 C194.752441,30.3237305 194.102051,29.7568359 194.102051,28.6230469 C194.102051,27.8320312 194.387695,27.2431641 194.958984,26.8564453 C195.530273,26.4697266 196.400391,26.2587891 197.569336,26.2236328 L197.569336,26.2236328 L199.125,26.1708984 L199.125,27.3837891 C199.125,28.2714844 198.845947,28.9833984 198.287842,29.5195312 C197.729736,30.0556641 196.984863,30.3237305 196.053223,30.3237305 Z M214.892578,33 L220.508789,18.2607422 L216.303223,18.2607422 L213.46875,26.6586914 C213.117188,27.8276367 212.919434,28.8339844 212.875488,29.6777344 L212.875488,29.6777344 L212.796387,29.6777344 C212.717285,28.7285156 212.519531,27.722168 212.203125,26.6586914 L212.203125,26.6586914 L209.355469,18.2607422 L205.149902,18.2607422 L210.766113,33 L214.892578,33 Z M229.289062,33.2636719 C230.44043,33.2636719 231.416016,33.1779785 232.21582,33.0065918 C233.015625,32.8352051 233.76709,32.5737305 234.470215,32.222168 L234.470215,32.222168 L234.470215,29.1108398 C233.608887,29.5151367 232.782715,29.8095703 231.991699,29.9941406 C231.200684,30.1787109 230.361328,30.2709961 229.473633,30.2709961 C228.331055,30.2709961 227.443359,29.9501953 226.810547,29.3085938 C226.177734,28.6669922 225.839355,27.7749023 225.79541,26.6323242 L225.79541,26.6323242 L235.300781,26.6323242 L235.300781,24.6811523 C235.300781,22.5893555 234.720703,20.9501953 233.560547,19.7636719 C232.400391,18.5771484 230.778809,17.9838867 228.695801,17.9838867 C226.516113,17.9838867 224.808838,18.6584473 223.573975,20.0075684 C222.339111,21.3566895 221.72168,23.2661133 221.72168,25.7358398 C221.72168,28.1352539 222.389648,29.9897461 223.725586,31.2993164 C225.061523,32.6088867 226.916016,33.2636719 229.289062,33.2636719 Z M231.530273,23.9560547 L225.887695,23.9560547 C225.958008,22.9628906 226.234863,22.1960449 226.718262,21.6555176 C227.20166,21.1149902 227.869629,20.8447266 228.722168,20.8447266 C229.574707,20.8447266 230.251465,21.1149902 230.752441,21.6555176 C231.253418,22.1960449 231.512695,22.9628906 231.530273,23.9560547 L231.530273,23.9560547 Z M242.591309,33 L242.591309,12.4863281 L238.570312,12.4863281 L238.570312,33 L242.591309,33 Z M250.831055,33 L250.831055,12.4863281 L246.810059,12.4863281 L246.810059,33 L250.831055,33 Z M261.720703,33.2636719 C262.87207,33.2636719 263.847656,33.1779785 264.647461,33.0065918 C265.447266,32.8352051 266.19873,32.5737305 266.901855,32.222168 L266.901855,32.222168 L266.901855,29.1108398 C266.040527,29.5151367 265.214355,29.8095703 264.42334,29.9941406 C263.632324,30.1787109 262.792969,30.2709961 261.905273,30.2709961 C260.762695,30.2709961 259.875,29.9501953 259.242188,29.3085938 C258.609375,28.6669922 258.270996,27.7749023 258.227051,26.6323242 L258.227051,26.6323242 L267.732422,26.6323242 L267.732422,24.6811523 C267.732422,22.5893555 267.152344,20.9501953 265.992188,19.7636719 C264.832031,18.5771484 263.210449,17.9838867 261.127441,17.9838867 C258.947754,17.9838867 257.240479,18.6584473 256.005615,20.0075684 C254.770752,21.3566895 254.15332,23.2661133 254.15332,25.7358398 C254.15332,28.1352539 254.821289,29.9897461 256.157227,31.2993164 C257.493164,32.6088867 259.347656,33.2636719 261.720703,33.2636719 Z M263.961914,23.9560547 L258.319336,23.9560547 C258.389648,22.9628906 258.666504,22.1960449 259.149902,21.6555176 C259.633301,21.1149902 260.30127,20.8447266 261.153809,20.8447266 C262.006348,20.8447266 262.683105,21.1149902 263.184082,21.6555176 C263.685059,22.1960449 263.944336,22.9628906 263.961914,23.9560547 L263.961914,23.9560547 Z M275.022949,33 L275.022949,25.4985352 C275.022949,24.3120117 275.381104,23.3891602 276.097412,22.7299805 C276.813721,22.0708008 277.813477,21.7412109 279.09668,21.7412109 C279.5625,21.7412109 279.958008,21.7851562 280.283203,21.8730469 L280.283203,21.8730469 L280.586426,18.1025391 C280.226074,18.0234375 279.773438,17.9838867 279.228516,17.9838867 C278.314453,17.9838867 277.468506,18.2365723 276.690674,18.7419434 C275.912842,19.2473145 275.29541,19.9130859 274.838379,20.7392578 L274.838379,20.7392578 L274.640625,20.7392578 L274.047363,18.2607422 L271.001953,18.2607422 L271.001953,33 L275.022949,33 Z M287.257324,33.2636719 C289.349121,33.2636719 290.920166,32.8681641 291.970459,32.0771484 C293.020752,31.2861328 293.545898,30.1347656 293.545898,28.6230469 C293.545898,27.8935547 293.418457,27.2651367 293.163574,26.737793 C292.908691,26.2104492 292.513184,25.7446289 291.977051,25.340332 C291.440918,24.9360352 290.597168,24.5009766 289.445801,24.0351562 C288.153809,23.5166016 287.31665,23.1254883 286.934326,22.8618164 C286.552002,22.5981445 286.36084,22.2861328 286.36084,21.9257812 C286.36084,21.2841797 286.954102,20.9633789 288.140625,20.9633789 C288.808594,20.9633789 289.463379,21.0644531 290.10498,21.2666016 C290.746582,21.46875 291.436523,21.7280273 292.174805,22.0444336 L292.174805,22.0444336 L293.387695,19.144043 C291.708984,18.3706055 289.981934,17.9838867 288.206543,17.9838867 C286.343262,17.9838867 284.904053,18.342041 283.888916,19.0583496 C282.873779,19.7746582 282.366211,20.7875977 282.366211,22.097168 C282.366211,22.8618164 282.487061,23.5056152 282.72876,24.0285645 C282.970459,24.5515137 283.357178,25.0151367 283.888916,25.4194336 C284.420654,25.8237305 285.253418,26.2631836 286.387207,26.737793 C287.178223,27.0717773 287.811035,27.3640137 288.285645,27.614502 C288.760254,27.8649902 289.094238,28.0891113 289.287598,28.2868652 C289.480957,28.4846191 289.577637,28.7416992 289.577637,29.0581055 C289.577637,29.9018555 288.848145,30.3237305 287.38916,30.3237305 C286.677246,30.3237305 285.853271,30.2050781 284.917236,29.9677734 C283.981201,29.7304688 283.139648,29.4360352 282.392578,29.0844727 L282.392578,29.0844727 L282.392578,32.4067383 C283.051758,32.6879883 283.759277,32.901123 284.515137,33.0461426 C285.270996,33.1911621 286.185059,33.2636719 287.257324,33.2636719 Z" id="path-2"></path>
    </defs>
    <g id="Page-1" stroke="none" stroke-width="1" fill="none" fill-rule="evenodd">
        <g id="1.0---Login" transform="translate(-165.000000, -16.000000)">
            <g id="covid19_SupportForTravelers" transform="translate(165.000000, 16.000000)">
                <g id="Group-Copy" transform="translate(176.000000, 7.000000)" fill-rule="nonzero">
                    <g id="Group-2">
                        <g id="COVID-19RESPONSE">
                            <use fill="#000000" xlink:href="#path-1"></use>
                            <use fill="#FFFFFF" xlink:href="#path-1"></use>
                        </g>
                        <g id="SupportforTravellers">
                            <use fill="#000000" xlink:href="#path-2"></use>
                            <use fill="#FFFFFF" xlink:href="#path-2"></use>
                        </g>
                    </g>
                </g>
                <g id="Logo" transform="translate(0.000000, 2.000000)" fill-rule="nonzero">
                    <g id="Group_14" transform="translate(63.831000, 7.924000)" fill="#FFFFFF">
                        <g id="Group_13">
                            <g id="Group_12">
                                <path d="M12.055,3.444 C12.055,2.074 11.95,1.716 11.043,1.653 L10.411,1.611 C10.306,1.527 10.327,1.168 10.432,1.147 C11.532,1.042 12.919,0.999 14.832,0.999 C15.9994697,0.93290729 17.1681793,1.10506656 18.267,1.505 C19.2243262,1.86030981 19.8505352,2.78415886 19.826,3.805 C19.826,5.133 18.962,5.805 17.74,6.334 C17.74,6.524 17.909,6.566 18.119,6.608 C19.6660773,6.81778854 20.829271,8.12404659 20.859,9.685 C20.859,11.813 19.11,13.267 15.422,13.267 C14.832,13.267 13.822,13.204 12.977,13.204 C12.071,13.204 11.377,13.246 10.617,13.267 C10.4775682,13.1503128 10.4587872,12.9428275 10.575,12.803 L10.933,12.74 C12.008,12.571 12.05,12.382 12.05,10.44 L12.055,3.444 Z M13.741,5.889 C13.741,6.395 13.762,6.437 14.795,6.395 C16.881,6.332 17.995,5.763 17.995,4.035 C17.995,2.223 16.495,1.548 14.939,1.548 C14.6195494,1.53601188 14.3000844,1.57139567 13.991,1.653 C13.78,1.716 13.691,1.801 13.691,2.138 L13.691,5.889 L13.741,5.889 Z M13.741,10.167 C13.6707519,10.8613035 13.8182328,11.5602647 14.163,12.167 C14.6102051,12.5538278 15.1981959,12.7371447 15.786,12.673 C17.598,12.673 18.986,11.935 18.986,10.102 C18.986,8.648 18.164,6.941 14.919,6.941 C13.819,6.941 13.739,7.046 13.739,7.426 L13.741,10.167 Z" id="Path_335"></path>
                                <path d="M35.068,5.257 C35.068,3.592 35.026,3.318 33.993,3.234 L33.55,3.192 C33.445,3.129 33.487,2.855 33.592,2.792 C34.456,2.834 35.067,2.834 35.784,2.834 C36.484,2.834 37.069,2.813 37.955,2.792 C38.06,2.834 38.102,3.129 37.997,3.192 L37.554,3.234 C36.521,3.318 36.479,3.571 36.479,5.257 L36.479,10.862 C36.479,12.527 36.521,12.762 37.554,12.862 L37.997,12.904 C38.102,12.967 38.06,13.241 37.955,13.304 C37.091,13.262 36.48,13.262 35.784,13.262 C35.046,13.262 34.456,13.283 33.592,13.304 C33.4722995,13.203875 33.4537071,13.0268043 33.55,12.904 L33.993,12.862 C35.026,12.757 35.068,12.525 35.068,10.862 L35.068,5.257 Z" id="Path_336"></path>
                                <path d="M44.761,10.883 C44.761,12.527 44.803,12.783 45.751,12.843 L46.278,12.885 C46.383,12.948 46.341,13.222 46.236,13.285 C45.309,13.243 44.736,13.243 44.087,13.243 C43.438,13.243 42.865,13.264 41.811,13.285 C41.706,13.243 41.685,12.969 41.811,12.885 L42.401,12.843 C43.328,12.759 43.413,12.527 43.413,10.883 L43.413,3.866 C43.413,3.381 43.413,3.36 42.928,3.36 L42.022,3.36 C41.3225178,3.28068879 40.6156629,3.42045247 39.999,3.76 C39.6685607,4.06236242 39.4154791,4.43958431 39.261,4.86 C39.1143125,4.93655376 38.9335575,4.89147233 38.84,4.755 C39.0988333,3.98915298 39.3099054,3.20798593 39.472,2.416 C39.5749493,2.38430662 39.6850507,2.38430662 39.788,2.416 C39.893,2.922 40.42,2.901 41.179,2.901 L47.817,2.901 C48.702,2.901 48.85,2.859 49.102,2.458 C49.2018808,2.41403038 49.3180341,2.43029185 49.402,2.5 C49.2083518,3.28582713 49.1199121,4.09388965 49.139,4.903 C49.076,5.029 48.802,5.029 48.718,4.924 C48.7057711,4.50595322 48.5662189,4.1016007 48.318,3.765 C47.7392411,3.44379624 47.0771374,3.304406 46.418,3.365 L45.259,3.365 C44.774,3.365 44.774,3.386 44.774,3.892 L44.774,10.892 L44.761,10.883 Z" id="Path_337"></path>
                                <path d="M51.779,5.257 C51.779,3.592 51.737,3.318 50.704,3.234 L50.261,3.192 C50.156,3.129 50.198,2.855 50.303,2.792 C51.167,2.834 51.778,2.834 52.495,2.834 C53.195,2.834 53.781,2.813 54.666,2.792 C54.771,2.834 54.813,3.129 54.708,3.192 L54.265,3.234 C53.232,3.318 53.19,3.571 53.19,5.257 L53.19,10.862 C53.19,12.527 53.232,12.762 54.265,12.862 L54.708,12.904 C54.813,12.967 54.771,13.241 54.666,13.304 C53.802,13.262 53.191,13.262 52.495,13.262 C51.757,13.262 51.167,13.283 50.303,13.304 C50.1832995,13.203875 50.1647071,13.0268043 50.261,12.904 L50.704,12.862 C51.737,12.757 51.779,12.525 51.779,10.862 L51.779,5.257 Z" id="Path_338"></path>
                                <path d="M59.597,13.454 C58.6013394,13.4909416 57.6113339,13.2886197 56.71,12.864 C56.404822,12.1643368 56.2332044,11.4137643 56.204,10.651 C56.288,10.546 56.583,10.503 56.647,10.609 C57.0465016,12.0334189 58.368523,12.9997339 59.847,12.948 C61.406,12.948 62.165,12.084 62.165,11.136 C62.165,10.436 61.996,9.682 60.648,8.923 L58.878,7.954 C57.7778092,7.47472566 57.0158685,6.44610564 56.878,5.254 C56.878,3.754 58.248,2.554 60.671,2.554 C61.2525524,2.56712629 61.8313762,2.63780442 62.399,2.765 C62.6125461,2.81889772 62.8317654,2.84709743 63.052,2.849 C63.2696173,3.46530041 63.3834962,4.11343043 63.389,4.767 C63.305,4.851 63.01,4.915 62.925,4.809 C62.6565812,3.6604967 61.5669831,2.89790725 60.396,3.039 C58.584,3.039 58.183,4.072 58.183,4.788 C58.183,5.694 59.068,6.369 59.764,6.727 L61.239,7.507 C62.419,8.118 63.5570005,9.024 63.5570005,10.52 C63.558,12.274 62.02,13.454 59.597,13.454 Z" id="Path_339"></path>
                                <path d="M68.953,8.165 C68.131,8.165 68.11,8.207 68.11,8.671 L68.11,10.884 C68.11,12.528 68.194,12.76 69.143,12.844 L69.628,12.886 C69.733,12.949 69.691,13.223 69.586,13.286 C68.68,13.244 68.086,13.244 67.437,13.244 C66.699,13.244 66.13,13.286 65.477,13.286 C65.372,13.244 65.351,12.986 65.435,12.886 L65.73,12.844 C66.678,12.696 66.72,12.528 66.72,10.884 L66.72,5.235 C66.72,3.591 66.594,3.317 65.73,3.254 L65.288,3.212 C65.183,3.149 65.225,2.875 65.33,2.812 C66.152,2.833 66.742,2.854 67.458,2.854 C68.111,2.854 68.701,2.833 69.418,2.812 C69.523,2.854 69.544,3.149 69.46,3.212 L69.144,3.254 C68.154,3.338 68.132,3.591 68.132,5.235 L68.132,7.047 C68.132,7.532 68.174,7.553 68.975,7.553 L73.822,7.553 C74.644,7.553 74.665,7.532 74.665,7.047 L74.665,5.235 C74.665,3.591 74.623,3.335 73.632,3.254 L73.315,3.212 C73.21,3.149 73.252,2.875 73.357,2.812 C74.137,2.854 74.706,2.854 75.401,2.854 C76.054,2.854 76.644,2.833 77.401,2.812 C77.506,2.854 77.527,3.149 77.443,3.212 L77.085,3.254 C76.095,3.338 76.073,3.591 76.073,5.235 L76.073,10.904 C76.073,12.548 76.115,12.758 77.085,12.864 L77.485,12.906 C77.59,12.969 77.548,13.243 77.443,13.306 C76.621,13.264 76.052,13.264 75.399,13.264 C74.699,13.264 74.093,13.285 73.355,13.306 C73.25,13.264 73.229,13.006 73.313,12.906 L73.629,12.864 C74.662,12.716 74.662,12.548 74.662,10.904 L74.662,8.67 C74.662,8.206 74.62,8.164 73.819,8.164 L68.953,8.165 Z" id="Path_340"></path>
                                <path d="M2.361,16.763 C3.84657652,15.6625122 5.65785941,15.0911396 7.506,15.14 C8.64445709,15.1599626 9.77646292,15.3157309 10.878,15.604 C11.0459677,15.6681424 11.2254146,15.696745 11.405,15.688 C11.426,16.131 11.51,17.332 11.679,18.488 C11.5398734,18.6162693 11.3313707,18.6335758 11.173,18.53 C10.873,17.245 10.035,15.748 7.273,15.748 C4.365,15.748 1.878,17.581 1.878,21.522 C1.878,25.505 4.407,27.722 7.547,27.722 C9.32680025,27.7866098 10.9413128,26.6848661 11.53,25.004 C11.6979159,24.9123157 11.9067152,24.946978 12.036,25.088 C11.9004476,26.0080875 11.5931087,26.8944854 11.13,27.701 C10.8996118,27.7419274 10.6738433,27.8055713 10.456,27.891 C9.47595588,28.172554 8.46260976,28.3215458 7.443,28.334 C5.77208875,28.3938944 4.12131741,27.9537815 2.702,27.07 C0.973683826,25.8988689 -0.0428818536,23.9312495 0.002,21.844 C-0.0620186657,19.872051 0.813322304,17.9866727 2.361,16.763 Z" id="Path_341"></path>
                                <path d="M12.793,22.895 C12.8011994,21.3665926 13.4337615,19.9079488 14.5439489,18.8574346 C15.6541364,17.8069204 17.1454698,17.2558295 18.672,17.332 C22.486,17.332 24.404,19.966 24.404,22.727 C24.3999589,24.2250931 23.7870853,25.6571792 22.7061197,26.6943931 C21.6251542,27.7316071 20.1689822,28.284823 18.672,28.227 C15.006,28.248 12.793,25.74 12.793,22.895 Z M22.761,23.232 C22.761,20.64 21.561,17.837 18.399,17.837 C16.671,17.837 14.458,18.954 14.458,22.41 C14.458,24.749 15.638,27.763 18.904,27.763 C20.885,27.742 22.761,26.332 22.761,23.232 Z" id="Path_342"></path>
                                <path d="M43.054,21.543 C43.1098674,20.4447169 43.0033875,19.3442003 42.738,18.277 C42.5166736,18.0514482 42.2108194,17.9291791 41.895,17.94 L41.473,17.919 C41.4276211,17.863448 41.406503,17.7919734 41.4144037,17.7206793 C41.4223043,17.6493852 41.4585592,17.5842685 41.515,17.54 C42.147,17.561 42.758,17.582 43.415,17.582 C44.115,17.582 44.574,17.561 45.164,17.54 C45.2199739,17.5845894 45.2558733,17.6496447 45.2637555,17.7207725 C45.2716378,17.7919003 45.2508531,17.8632371 45.206,17.919 L44.806,17.94 C44.4791344,17.9164711 44.1623475,18.0588937 43.963,18.319 C43.7580745,19.3725639 43.6801855,20.446895 43.731,21.519 L43.731,23.289 C43.845252,24.6422723 43.4297349,25.9870563 42.572,27.04 C41.6991097,27.819929 40.5600184,28.2348274 39.39,28.199 C38.2831437,28.2662127 37.1855083,27.9621546 36.271,27.335 C35.386,26.635 34.964,25.502 34.964,23.626 L34.964,19.917 C34.964,18.273 34.922,18.017 33.974,17.936 L33.552,17.915 C33.447,17.852 33.489,17.578 33.594,17.536 C34.437,17.557 35.006,17.578 35.659,17.578 C36.333,17.578 36.902,17.557 37.703,17.536 C37.808,17.578 37.829,17.852 37.745,17.915 L37.345,17.936 C36.376,18.02 36.355,18.273 36.355,19.917 L36.355,23.31 C36.355,25.839 37.198,27.504 39.748,27.504 C42.171,27.504 43.078,25.713 43.078,23.31 L43.078,21.543 L43.054,21.543 Z" id="Path_343"></path>
                                <path d="M62.441,19.586 C62.441,18.406 62.378,18.111 61.535,18.048 L60.945,17.985 C60.882,17.922 60.84,17.606 60.966,17.606 C61.956,17.522 63.221,17.48 64.928,17.48 C65.9802532,17.4259174 67.0330114,17.5763599 68.028,17.923 C68.8702581,18.2143955 69.4309015,19.0128387 69.419,19.904 C69.419,21.042 68.639,21.632 67.543,22.075 C67.543,22.244 67.691,22.286 67.901,22.307 C69.2650694,22.4631547 70.3118202,23.5901309 70.367,24.962 C70.367,26.816 68.787,28.039 65.457,28.039 C64.93,28.039 64.024,27.997 63.244,27.997 C62.422,27.997 61.811,28.039 61.116,28.039 C60.9962995,27.938875 60.9777071,27.7618043 61.074,27.639 L61.411,27.597 C62.38,27.45 62.422,27.281 62.422,25.616 L62.422,19.589 L62.441,19.586 Z M63.958,21.693 C63.958,22.136 63.979,22.178 64.906,22.136 C66.781,22.073 67.793,21.588 67.793,20.092 C67.793,18.533 66.444,17.943 65.053,17.943 C64.7681026,17.9305421 64.4831367,17.9660361 64.21,18.048 C64.02,18.09 63.957,18.174 63.957,18.469 L63.958,21.693 Z M63.958,25.381 C63.8951395,25.9827739 64.0280528,26.5887742 64.337,27.109 C64.7448427,27.4415832 65.2669978,27.6006718 65.791,27.552 C67.435,27.552 68.678,26.92 68.678,25.318 C68.678,24.054 67.94,22.6 65.011,22.6 C64.021,22.6 63.936,22.705 63.936,23.021 L63.936,25.379 L63.958,25.381 Z" id="Path_344"></path>
                                <g id="Group_7" transform="translate(21.920000, 2.686000)">
                                    <path d="M10.472,10.221 L10.029,10.179 C9.94994939,10.1771863 9.87166934,10.1630149 9.797,10.137 C9.165,10.032 8.912,9.463 8.597,8.937 L7.079,6.3 C6.826,5.857 6.531,5.267 5.941,5.183 C7.479,4.993 8.891,4.108 8.891,2.57 C8.891,0.8 7.142,-0.001 5.372,-0.001 C4.318,-0.001 3.349,0.02 2.253,0.02 C1.663,0.02 0.946,-0.001 0.353,-0.001 C0.016,-0.001 0.016,0.062 0.016,0.252 C0.016,0.526 0.121,0.442 0.48,0.463 C1.744,0.526 1.702,0.779 1.702,1.854 L1.702,8.745 C1.702,9.735 1.786,10.03 0.754,10.115 C0.754,10.115 0.585,10.136 0.501,10.136 L0.058,10.178 C-0.0326841386,10.3023655 -0.0145383196,10.4751828 0.1,10.578 C0.332,10.578 0.753,10.557 0.753,10.557 C1.322,10.536 1.891,10.494 2.481,10.494 C3.05,10.494 3.619,10.536 4.167,10.557 L4.167,10.557 C4.378,10.557 4.588,10.578 4.82,10.578 C4.93970046,10.477875 4.95829288,10.3008043 4.862,10.178 L4.419,10.136 C4.335,10.136 4.166,10.115 4.166,10.115 C3.112,10.052 3.176,9.757 3.176,8.745 L3.176,6.174 C3.176,6.026 3.155,5.626 3.26,5.5 C3.344,5.395 3.513,5.416 3.66,5.416 C5.072,5.416 5.051,5.542 5.725,6.723 L7.558,10.01 C7.706,10.263 7.811,10.579 8.19,10.579 L9.771,10.579 C9.961,10.579 10.193,10.6 10.424,10.6 C10.556,10.558 10.577,10.326 10.472,10.221 Z M4.108,5.058 C3.792,5.058 3.16,5.184 3.16,4.758 L3.16,1.728 C3.16,0.548 3.202,0.379 4.614,0.379 C6.279,0.379 7.29,1.222 7.29,2.779 C7.31603715,3.46476149 6.99023148,4.11637283 6.426,4.507 C5.72815398,4.92501486 4.91829054,5.11744037 4.107,5.058 L4.108,5.058 Z" id="Path_345"></path>
                                </g>
                                <g id="Group_9" transform="translate(24.723000, 17.437000)">
                                    <path d="M1.642,2.571 C1.642,0.927 1.6,0.671 0.525,0.59 L0.082,0.548 C-0.023,0.485 0.019,0.211 0.124,0.148 C1.093,0.19 1.683,0.19 2.379,0.19 C3.053,0.19 3.643,0.169 4.507,0.148 C4.612,0.19 4.655,0.485 4.549,0.548 L4.128,0.59 C3.116,0.674 3.074,0.927 3.074,2.571 L3.074,8.048 C3.074,9.038 3.116,9.439 3.432,9.755 C3.622,9.924 3.959,10.113 5.332,10.113 C6.807,10.113 7.165,10.05 7.439,9.902 C7.96121993,9.50342136 8.35654184,8.96185119 8.577,8.343 C8.682,8.259 9.02,8.322 9.02,8.427 C8.84820946,9.18737447 8.6009851,9.92871255 8.282,10.64 C7.397,10.619 5.753,10.598 3.962,10.598 L2.362,10.598 C1.624,10.598 1.077,10.619 0.107,10.64 C-0.0127004637,10.539875 -0.0312928807,10.3628043 0.065,10.24 L0.592,10.198 C1.604,10.114 1.625,9.882 1.625,8.238 L1.625,2.569 L1.642,2.571 Z" id="Path_346"></path>
                                    <path d="M48.024,2.592 C48.024,0.927 47.982,0.653 46.991,0.569 L46.569,0.527 C46.464,0.464 46.506,0.19 46.611,0.127 C47.454,0.169 48.044,0.169 48.76,0.169 C49.434,0.169 50.024,0.148 50.867,0.127 C50.972,0.169 50.993,0.464 50.909,0.527 L50.488,0.569 C49.476,0.653 49.455,0.906 49.455,2.592 L49.455,8.197 C49.455,9.862 49.497,10.097 50.488,10.197 L50.909,10.239 C51.014,10.302 50.972,10.576 50.867,10.639 C50.024,10.618 49.434,10.597 48.76,10.597 C48.044,10.597 47.475,10.618 46.611,10.639 C46.506,10.597 46.485,10.339 46.569,10.239 L46.991,10.197 C48.002,10.092 48.024,9.86 48.024,8.197 L48.024,2.592 Z" id="Path_347"></path>
                                    <path d="M34.453,10.2 C34.369,10.2 34.2,10.179 34.2,10.179 C34.0254808,10.1838204 33.8570171,10.1148374 33.736,9.989 C33.5630956,9.62854915 33.4902216,9.22826022 33.525,8.83 L33.525,1.918 C33.525,1.618 33.462,0.97 33.672,0.738 C33.8277809,0.617884067 34.0249298,0.564639468 34.22,0.59 L34.22,0.59 C34.2979462,0.594502801 34.3761293,0.587425882 34.452,0.569 L34.895,0.548 C35,0.485 34.958,0.211 34.853,0.148 C34.621,0.148 34.41,0.148 34.2,0.169 L32.346,0.169 C32.135,0.169 31.967,0.169 31.84,0.38 L28.047,8.261 L24.696,0.654 C24.591,0.38 24.57,0.169 24.211,0.169 L22.311,0.169 C22.1,0.169 21.89,0.169 21.658,0.148 C21.553,0.19 21.51,0.485 21.616,0.548 L22.059,0.569 C22.143,0.569 22.312,0.59 22.312,0.59 C23.029,0.632 23.092,0.801 23.012,1.559 L22.443,8.959 C22.401,9.697 22.359,10.097 21.579,10.159 C21.579,10.159 21.41,10.18 21.326,10.18 L20.883,10.222 C20.7923159,10.3463655 20.8104617,10.5191828 20.925,10.622 C21.157,10.622 21.557,10.601 21.557,10.601 C21.957,10.58 22.357,10.538 22.757,10.538 C23.2,10.538 23.621,10.58 24.064,10.601 L24.064,10.601 C24.275,10.601 24.485,10.622 24.717,10.622 C24.8367005,10.521875 24.8552929,10.3448043 24.759,10.222 L24.316,10.18 C24.231335,10.1778339 24.1468635,10.1708224 24.063,10.159 C22.946,10.075 22.963,9.295 23.03,8.326 L23.557,1.456 L23.683,1.456 L27.308,9.927 C27.35,10.053 27.392,10.243 27.582,10.243 C27.751,10.243 27.793,10.053 27.856,9.943 L31.923,1.261 L32.049,1.261 L32.049,8.826 C32.049,9.126 32.091,9.753 31.775,9.985 C31.5540841,10.0874462 31.3173958,10.1516902 31.075,10.175 C30.9991269,10.1934113 30.9209459,10.200488 30.843,10.196 L30.4,10.238 C30.3093159,10.3623655 30.3274617,10.5351828 30.442,10.638 C30.674,10.638 31.074,10.617 31.074,10.617 C31.664,10.596 32.274,10.554 32.865,10.554 C33.308,10.554 34.15,10.596 34.15,10.596 C34.361,10.596 34.571,10.617 34.824,10.638 C34.9437005,10.537875 34.9622929,10.3608043 34.866,10.238 L34.453,10.2 Z" id="Path_348"></path>
                                    <g id="Group_8" transform="translate(51.904000, 0.000000)">
                                        <path d="M10.935,10.242 L10.872,10.2 C10.7929477,10.1982027 10.7146651,10.1840309 10.64,10.158 C9.966,10.01 9.692,9.189 9.44,8.599 L5.94,0.317 C5.898,0.212 5.835,0.001 5.687,0.001 C5.497,0.001 5.434,0.233 5.387,0.359 L2.036,8.641 C1.86969254,9.10048889 1.65055636,9.53909683 1.383,9.948 C1.20665149,10.0980736 0.982561608,10.1803345 0.751,10.18 C0.751,10.18 0.561,10.201 0.477,10.201 L0.056,10.243 C-0.0346841386,10.3673655 -0.0165383196,10.5401828 0.098,10.643 C0.33,10.643 0.751,10.622 0.751,10.622 C1.215,10.622 1.657,10.559 2.121,10.559 C2.5,10.559 2.901,10.601 3.28,10.622 C3.28,10.622 3.702,10.643 3.933,10.643 C4.05220507,10.5426116 4.07075359,10.365959 3.975,10.243 L3.532,10.201 C3.45434936,10.1981133 3.37690689,10.1911034 3.3,10.18 C2.9,10.138 2.394,10.054 2.394,9.611 C2.42330926,9.29626971 2.50900786,8.98938065 2.647,8.705 L3.174,7.462 C3.427,6.872 3.321,6.809 4.017,6.809 L6.377,6.809 C7.199,6.809 7.094,6.809 7.452,7.652 L8,8.916 C8.12509845,9.16801823 8.21044174,9.43787844 8.253,9.716 C8.253,10.137 7.81,10.159 7.368,10.201 C7.28413604,10.2128181 7.19966475,10.2198295 7.115,10.222 L6.693,10.243 C6.60231586,10.3673655 6.62046168,10.5401828 6.735,10.643 C6.967,10.643 7.388,10.622 7.388,10.622 C7.873,10.601 8.378,10.559 8.863,10.559 C9.474,10.559 10.085,10.601 10.675,10.622 L10.675,10.622 C10.865,10.622 10.696,10.643 10.928,10.643 C10.9991098,10.579 11.041,10.326 10.935,10.242 Z M6.341,6.342 L4.297,6.342 C4.234,6.342 3.665,6.405 3.665,6.237 C3.67636726,6.17086926 3.69760422,6.10682128 3.728,6.047 L4.95,3.012 C4.992,2.928 5.119,2.506 5.25,2.506 C5.355,2.506 5.503,2.949 5.524,3.012 L6.724,5.857 C6.724,5.899 6.85,6.157 6.85,6.215 C6.847,6.385 6.447,6.343 6.341,6.343 L6.341,6.342 Z" id="Path_349"></path>
                                    </g>
                                </g>
                            </g>
                        </g>
                    </g>
                    <path d="M8.979,34.043 C18.399,34.043 31.422,39.353 40.879,39.353 C47.622,39.353 54.218,37.562 57.948,34.907 C58.2093432,33.3256321 58.3431076,31.7258102 58.3485022,30.123 C58.4087204,19.8436152 52.9595691,10.3189843 44.0673428,5.1616836 C35.1751165,0.00438292434 24.2018835,0.00438292434 15.3096572,5.1616836 C6.41743085,10.3189843 0.968279587,19.8436152 1.02849779,30.123 C1.02421283,31.7121726 1.15973897,33.2986651 1.434,34.864 C3.92021251,34.3706134 6.44485619,34.0958974 8.979,34.043 Z" id="Path_350" fill="#FFFFFF"></path>
                    <g id="Group_15" transform="translate(1.308000, 0.148000)" fill="#FDB913">
                        <polygon id="Path_351" points="46.909 23.337 48.026 23.801 50.555 22.052"></polygon>
                        <path d="M4.657,21.378 L1.686,20.324 L1.834,19.966 L5.185,21.083 L5.206,21.083 L5.649,20.83 L5.818,20.725 L2.149,19.165 L2.297,18.786 L10.497,22.073 L10.771,21.968 L2.655,18.027 L2.845,17.648 L11.422,21.648 L11.548,21.585 L3.224,16.865 L3.393,16.507 L15.4,23.043 C15.505,22.853 15.7,22.537 15.8,22.343 C12.9455152,19.6752894 9.94880324,17.1639533 6.823,14.82 C10.0917243,16.9570013 13.4755004,18.9126209 16.959,20.678 C17.149,20.446 17.296,20.257 17.486,20.046 L7.249,11.031 L7.523,10.757 L15.805,17.817 L8.134,10.125 L8.434,9.825 L17.034,18.149 L9.019,9.261 L9.335,8.987 L16.735,16.911 L9.968,8.4 L10.268,8.126 L18.929,18.663 C19.161,18.473 19.329,18.326 19.582,18.136 C17.9451157,14.6088547 16.1150049,11.1746427 14.1,7.849 C16.3218409,11.0379375 18.7136304,14.1050361 21.265,17.037 C21.518,16.889 21.771,16.763 22.024,16.637 L21.982,16.616 L15.889,4.5 L16.247,4.331 L21.284,13.962 L17.048,3.992 L17.427,3.823 L22.3,14.761 L18.186,3.508 L18.565,3.36 L22.465,13.496 L19.409,3.065 L19.788,2.939 L23.834,15.878 L23.834,15.92 L23.834,15.92 L24.656,15.667 C24.4512716,11.8058814 24.0433735,7.95822134 23.434,4.14 C24.2921415,7.91084595 25.3543713,11.6323223 26.616,15.288 C26.89,15.246 27.185,15.225 27.48,15.204 L27.48,15.183 L27.522,15.183 L27.501,15.162 L26.363,1.632 L26.763,1.611 L27.817,12.443 L27.627,1.59 L28.048,1.569 L28.469,13.539 L28.892,1.569 L29.313,1.59 L29.123,12.443 L30.177,1.611 L30.577,1.632 L29.477,15.14 L29.456,15.161 L29.477,15.161 C29.751,15.182 30.046,15.203 30.32,15.245 C31.5846666,11.5973006 32.6485934,7.88307103 33.507,4.119 C32.8967854,7.93006532 32.4888805,11.7707798 32.285,15.625 C32.5645889,15.6899714 32.8392656,15.7745131 33.107,15.878 L37.153,2.978 L37.532,3.104 L34.455,13.539 L38.353,3.4 L38.732,3.548 L34.645,14.8 L39.512,3.866 L39.891,4.035 L35.591,14.024 L40.628,4.393 L40.986,4.562 L34.94,16.636 L34.94,16.636 C35.193,16.762 35.425,16.889 35.678,17.015 C38.2152127,14.0973593 40.5926883,11.044563 42.8,7.87 C40.7950994,11.1742684 38.9730269,14.586064 37.342,18.09 C37.5758598,18.2610598 37.8008202,18.4439652 38.016,18.638 L46.572,8.207 L46.872,8.481 L40.1,16.995 L47.5,9.071 L47.816,9.345 L39.808,18.238 L48.408,9.914 L48.708,10.214 L41.03,17.88 L49.312,10.82 L49.586,11.094 L39.449,20.008 L39.449,20.008 C39.618,20.198 39.786,20.408 39.955,20.619 C43.4107207,18.8667571 46.766546,16.9241042 50.007,14.8 C46.9064694,17.1280823 43.9309961,19.6182137 41.093,22.26 C41.219,22.471 41.409,22.829 41.536,23.04 L53.379,16.592 L53.548,16.95 L44.086,22.324 L53.927,17.751 L54.117,18.13 L44.949,22.6 L45.118,22.663 L54.432,18.891 L54.58,19.27 L45.919,22.958 L46.088,23.021 L51.861,21.1 L52.725,20.489 L53.025,20.7 L54.925,20.068 L55.073,20.426 L53.421,21 L55.8,22.811 L56.559,23.232 C53.4013913,10.058636 41.5444254,0.826302878 27.9989498,0.993941939 C14.4534742,1.161581 2.82862389,10.6845255 -0.002,23.932 C0.04,23.911 0.061,23.89 0.103,23.89 L0.461,23.742 L0.672,23.637 L4.657,21.378 Z" id="Path_352"></path>
                    </g>
                    <path d="M1.14,35.456 C3.73127037,34.9489789 6.3604673,34.6599679 9,34.592 C18.42,34.592 31.443,39.902 40.9,39.902 C47.833,39.902 54.6,38.002 58.285,35.224 C58.5824597,33.5544852 58.7307115,31.861805 58.7280365,30.166 C58.7307061,27.8803182 58.4621617,25.6023906 57.928,23.38 L53.992,21.189 L49.377,24.434 L46.258,23.234 C45.204,23.761 38.714,28.102 38.714,28.102 L36.227,26.289 L33.555,25.762 L29.994,23.17 L25.906,25.97 C25.906,25.97 21.333,28.625 21.186,28.625 C21.039,28.625 15.686,24.389 15.686,24.389 L13.178,21.797 C12.757,22.071 11.071,22.83 11.071,22.83 L10.987,22.851 L9.355,22.348 L7.377,21.294 L1.414,24.034 C1.372,24.055 1.351,24.076 1.309,24.076 C0.49874415,27.8206131 0.441296552,31.688978 1.14,35.456 L1.14,35.456 Z" id="Path_353" fill="#004B8D"></path>
                </g>
                <rect id="Rectangle" fill="#FCBA19" x="160" y="0" width="1" height="48"></rect>
            </g>
        </g>
    </g>
</svg>
