<?xml version="1.0" encoding="UTF-8"?>
<svg width="36px" height="47px" viewBox="0 0 36 47" version="1.1" xmlns="http://www.w3.org/2000/svg" xmlns:xlink="http://www.w3.org/1999/xlink">
    <!-- Generator: sketchtool 64 (101010) - https://sketch.com -->
    <title>1386DCDE-22E1-4A8D-9338-7DAB836F523B</title>
    <desc>Created with sketchtool.</desc>
    <g id="Page-1" stroke="none" stroke-width="1" fill="none" fill-rule="evenodd">
        <g id="2.2.2---PHO-Submission-View---Plan-Approved" transform="translate(-639.000000, -120.000000)" fill="#16C92E">
            <g id="Group-7-Copy-2" transform="translate(547.000000, 105.000000)">
                <g id="Group-5" transform="translate(39.000000, 15.000000)">
                    <g id="Health-Status-/-Negative" transform="translate(47.000000, 0.000000)">
                        <g id="icon_health_pass">
                            <rect id="Rectangle" opacity="0" x="0" y="0" width="48" height="47"></rect>
                            <path d="M37.5,5.875 L29.19375,5.875 C29.23125,5.63632812 29.25,5.38847656 29.25,5.140625 C29.25,2.30410156 26.896875,0 24,0 C21.103125,0 18.75,2.30410156 18.75,5.140625 C18.75,5.38847656 18.76875,5.63632812 18.80625,5.875 L10.5,5.875 C8.015625,5.875 6,7.84863281 6,10.28125 L6,42.59375 C6,45.0263672 8.015625,47 10.5,47 L37.5,47 C39.984375,47 42,45.0263672 42,42.59375 L42,10.28125 C42,7.84863281 39.984375,5.875 37.5,5.875 Z M24,2.9375 C25.246875,2.9375 26.25,3.91972656 26.25,5.140625 C26.25,6.36152344 25.246875,7.34375 24,7.34375 C22.753125,7.34375 21.75,6.36152344 21.75,5.140625 C21.75,3.91972656 22.753125,2.9375 24,2.9375 Z M39,42.59375 C39,43.4015625 38.325,44.0625 37.5,44.0625 L10.5,44.0625 C9.675,44.0625 9,43.4015625 9,42.59375 L9,10.28125 C9,9.4734375 9.675,8.8125 10.5,8.8125 L15,8.8125 L15,10.6484375 C15,11.2542969 15.50625,11.75 16.125,11.75 L31.875,11.75 C32.49375,11.75 33,11.2542969 33,10.6484375 L33,8.8125 L37.5,8.8125 C38.325,8.8125 39,9.4734375 39,10.28125 L39,42.59375 Z M32.2818749,22.9804309 L32.281875,22.9804309 C32.141219,22.8425722 31.9502634,22.765271 31.75125,22.765625 C31.5590625,22.765625 31.366875,22.8372278 31.220625,22.9804309 L21.144375,32.846759 L16.5909375,28.3881848 L16.5909375,28.3881849 C16.4502816,28.2503261 16.2593259,28.1730249 16.0603125,28.1733802 C15.868125,28.1733802 15.6759375,28.2449817 15.5296875,28.3881849 L14.469375,29.4264075 C14.176875,29.7128138 14.176875,30.1782239 14.469375,30.4646302 L20.61375,36.4809974 C20.76,36.6242005 20.9521875,36.695802 21.144375,36.695802 C21.3365625,36.695802 21.5278125,36.6242005 21.6740625,36.4809974 L33.34125,25.0568763 C33.63375,24.77047 33.63375,24.3050599 33.34125,24.0186536 L32.281875,22.9804309 L32.2818749,22.9804309 Z" id="Shape" fill-rule="nonzero"></path>
                        </g>
                    </g>
                </g>
            </g>
        </g>
    </g>
</svg>
