<?xml version="1.0" encoding="UTF-8"?>
<svg width="48px" height="42px" viewBox="0 0 48 42" version="1.1" xmlns="http://www.w3.org/2000/svg" xmlns:xlink="http://www.w3.org/1999/xlink">
    <!-- Generator: sketchtool 64 (101010) - https://sketch.com -->
    <title>F9BC38A2-9C29-4417-B7FF-ECB4CE327C18</title>
    <desc>Created with sketchtool.</desc>
    <g id="Page-1" stroke="none" stroke-width="1" fill="none" fill-rule="evenodd">
        <g id="2.2.2---PHO-Submission-View---Plan-Approved" transform="translate(-776.000000, -122.000000)" fill="#FFFFFF">
            <g id="Group-7-Copy-2" transform="translate(547.000000, 105.000000)">
                <g id="Group-5" transform="translate(39.000000, 15.000000)">
                    <g id="Plan-Status-/-Postive" transform="translate(190.000000, 0.000000)">
                        <g id="icon_isolation_fail">
                            <rect id="Rectangle" opacity="0" x="0" y="0" width="48" height="47"></rect>
                            <path d="M47.7893877,20.1493348 L25.8827429,2.85726878 L25.8827431,2.85726892 C24.7854859,1.98507708 23.2141708,1.98507708 22.1169135,2.8572686 L0.210268785,20.1493346 L0.210268826,20.1493346 C-0.0310500989,20.3380223 -0.0704625595,20.682536 0.122239748,20.9188275 C0.123792038,20.9207309 0.125357295,20.9226242 0.126935393,20.9245071 L1.31026754,22.3516411 L1.31026751,22.3516411 C1.50784814,22.5904522 1.86573278,22.6272126 2.10962504,22.4337482 C2.10983898,22.4335785 2.11005279,22.4334086 2.11026648,22.4332386 L5.33276326,19.8882238 L5.33276326,42.6766732 L5.33276326,42.6766734 C5.33276337,43.3977115 5.92971683,43.9822277 6.66609526,43.9822277 L41.3327273,43.9822277 L41.3327272,43.9822277 C42.0691065,43.9822277 42.6660592,43.3977115 42.6660592,42.6766734 C42.6660592,42.6766734 42.6660592,42.6766734 42.6660592,42.6766734 L42.6660592,19.8963837 L45.8993893,22.4495582 L45.8993893,22.4495582 C46.1433865,22.6431018 46.501367,22.6065887 46.6993885,22.3679611 L47.8818873,20.9400111 L47.8818873,20.9400111 C48.0687697,20.6937925 48.0282922,20.3477954 47.7893874,20.1493348 L47.7893877,20.1493348 Z M39.9993955,41.3711192 L7.99942749,41.3711192 L7.99942749,17.7830177 L23.6419118,5.42921065 L23.6419118,5.42921068 C23.8454833,5.2660164 24.1383397,5.2660164 24.3419111,5.42921063 L39.9993955,17.7895455 L39.9993955,41.3711192 Z M21.3327475,19.829474 L21.3327475,24.3989139 L16.6660855,24.3989139 L16.6660855,24.3989139 C16.2978958,24.3989139 15.9994195,24.691172 15.9994195,25.051691 C15.9994195,25.051691 15.9994195,25.051691 15.9994195,25.051691 L15.9994195,28.9683538 L15.9994195,28.9683539 C15.9994195,29.3288729 16.2978958,29.621131 16.6660855,29.621131 L21.3327475,29.621131 L21.3327475,34.1905709 L21.3327475,34.190571 C21.3327475,34.55109 21.6312238,34.8433481 21.9994195,34.8433481 L25.9994195,34.8433481 L25.9994094,34.8433481 C26.3675991,34.8433481 26.6660754,34.55109 26.6660754,34.190571 L26.6660754,29.6211311 L31.3327374,29.6211311 L31.3327374,29.6211311 C31.700927,29.6211311 31.9994034,29.328873 31.9994034,28.968354 L31.9994034,25.0516912 L31.9994034,25.0516912 C31.9994034,24.6911722 31.700927,24.3989141 31.3327374,24.3989141 L26.6660754,24.3989141 L26.6660754,19.8294742 L26.6660754,19.8294742 C26.6660754,19.4689552 26.367599,19.1766971 25.9994094,19.1766971 L21.9994195,19.1766971 L21.9994195,19.1766971 C21.6312237,19.1766971 21.3327474,19.4689552 21.3327474,19.8294742 C21.3327474,19.8294742 21.3327474,19.8294742 21.3327474,19.8294742 L21.3327475,19.829474 Z" id="Shape" fill-rule="nonzero"></path>
                        </g>
                    </g>
                </g>
            </g>
        </g>
    </g>
</svg>
