<?xml version="1.0" encoding="UTF-8"?>
<svg width="36px" height="47px" viewBox="0 0 36 47" version="1.1" xmlns="http://www.w3.org/2000/svg" xmlns:xlink="http://www.w3.org/1999/xlink">
    <!-- Generator: sketchtool 64 (101010) - https://sketch.com -->
    <title>66D66229-8944-45F1-A71B-5841597AC908</title>
    <desc>Created with sketchtool.</desc>
    <g id="Page-1" stroke="none" stroke-width="1" fill="none" fill-rule="evenodd">
        <g id="2.2.0---PHO-Submission-View" transform="translate(-639.000000, -120.000000)" fill="#FF534A">
            <g id="Group-7-Copy-2" transform="translate(547.000000, 105.000000)">
                <g id="Group-5" transform="translate(39.000000, 15.000000)">
                    <g id="Health-Status-/-Negative" transform="translate(47.000000, 0.000000)">
                        <g id="icon_health_fail">
                            <rect id="Rectangle" opacity="0" x="0" y="0" width="48" height="47"></rect>
                            <path d="M37.5,5.875 L29.19375,5.875 C29.23125,5.63632812 29.25,5.38847656 29.25,5.140625 C29.25,2.30410156 26.896875,0 24,0 C21.103125,0 18.75,2.30410156 18.75,5.140625 C18.75,5.38847656 18.76875,5.63632812 18.80625,5.875 L10.5,5.875 C8.015625,5.875 6,7.84863281 6,10.28125 L6,42.59375 C6,45.0263672 8.015625,47 10.5,47 L37.5,47 C39.984375,47 42,45.0263672 42,42.59375 L42,10.28125 C42,7.84863281 39.984375,5.875 37.5,5.875 Z M24,2.9375 C25.246875,2.9375 26.25,3.91972656 26.25,5.140625 C26.25,6.36152344 25.246875,7.34375 24,7.34375 C22.753125,7.34375 21.75,6.36152344 21.75,5.140625 C21.75,3.91972656 22.753125,2.9375 24,2.9375 Z M39,42.59375 C39,43.4015625 38.325,44.0625 37.5,44.0625 L10.5,44.0625 C9.675,44.0625 9,43.4015625 9,42.59375 L9,10.28125 C9,9.4734375 9.675,8.8125 10.5,8.8125 L15,8.8125 L15,10.6484375 C15,11.2542969 15.50625,11.75 16.125,11.75 L31.875,11.75 C32.49375,11.75 33,11.2542969 33,10.6484375 L33,8.8125 L37.5,8.8125 C38.325,8.8125 39,9.4734375 39,10.28125 L39,42.59375 Z M32.25,26.4375 L27,26.4375 L27,21.296875 C27,20.8929687 26.6625,20.5625 26.25,20.5625 L21.75,20.5625 C21.3375,20.5625 21,20.8929687 21,21.296875 L21,26.4375 L15.75,26.4375 C15.3375,26.4375 15,26.7679688 15,27.171875 L15,31.578125 C15,31.9820312 15.3375,32.3125 15.75,32.3125 L21,32.3125 L21,37.453125 C21,37.8570312 21.3375,38.1875 21.75,38.1875 L26.25,38.1875 C26.6625,38.1875 27,37.8570312 27,37.453125 L27,32.3125 L32.25,32.3125 C32.6625,32.3125 33,31.9820312 33,31.578125 L33,27.171875 C33,26.7679688 32.6625,26.4375 32.25,26.4375 Z" id="Shape" fill-rule="nonzero"></path>
                        </g>
                    </g>
                </g>
            </g>
        </g>
    </g>
</svg>
