<?xml version="1.0" encoding="UTF-8"?>
<svg width="48px" height="42px" viewBox="0 0 48 42" version="1.1" xmlns="http://www.w3.org/2000/svg" xmlns:xlink="http://www.w3.org/1999/xlink">
    <!-- Generator: sketchtool 64 (101010) - https://sketch.com -->
    <title>BDA70668-36CA-43BD-B55A-9C0882D5F61D</title>
    <desc>Created with sketchtool.</desc>
    <g id="Page-1" stroke="none" stroke-width="1" fill="none" fill-rule="evenodd">
        <g id="2.2.2---PHO-Submission-View---Plan-Approved" transform="translate(-776.000000, -122.000000)" fill="#16C92E">
            <g id="Group-7-Copy-2" transform="translate(547.000000, 105.000000)">
                <g id="Group-5" transform="translate(39.000000, 15.000000)">
                    <g id="Plan-Status-/-Postive" transform="translate(190.000000, 0.000000)">
                        <g id="icon_isolation_pass">
                            <path d="M47.7893877,20.1493348 L25.8827429,2.85726878 L25.8827431,2.85726892 C24.7854859,1.98507708 23.2141708,1.98507708 22.1169135,2.8572686 L0.210268785,20.1493346 L0.210268826,20.1493346 C-0.0310500989,20.3380223 -0.0704625595,20.682536 0.122239748,20.9188275 C0.123792038,20.9207309 0.125357295,20.9226242 0.126935393,20.9245071 L1.31026754,22.3516411 L1.31026751,22.3516411 C1.50784814,22.5904522 1.86573278,22.6272126 2.10962504,22.4337482 C2.10983898,22.4335785 2.11005279,22.4334086 2.11026648,22.4332386 L5.33276326,19.8882238 L5.33276326,42.6766732 L5.33276326,42.6766734 C5.33276337,43.3977115 5.92971683,43.9822277 6.66609526,43.9822277 L41.3327273,43.9822277 L41.3327272,43.9822277 C42.0691065,43.9822277 42.6660592,43.3977115 42.6660592,42.6766734 C42.6660592,42.6766734 42.6660592,42.6766734 42.6660592,42.6766734 L42.6660592,19.8963837 L45.8993893,22.4495582 L45.8993893,22.4495582 C46.1433865,22.6431018 46.501367,22.6065887 46.6993885,22.3679611 L47.8818873,20.9400111 L47.8818873,20.9400111 C48.0687697,20.6937925 48.0282922,20.3477954 47.7893874,20.1493348 L47.7893877,20.1493348 Z M39.9993955,41.3711192 L7.99942749,41.3711192 L7.99942749,17.7830177 L23.6419118,5.42921065 L23.6419118,5.42921068 C23.8454833,5.2660164 24.1383397,5.2660164 24.3419111,5.42921063 L39.9993955,17.7895455 L39.9993955,41.3711192 Z M31.5318749,20.7773059 L31.531875,20.7773059 C31.391219,20.6394472 31.2002634,20.562146 31.00125,20.5625 C30.8090625,20.5625 30.616875,20.6341028 30.470625,20.7773059 L20.394375,30.643634 L15.8409375,26.1850598 L15.8409375,26.1850599 C15.7002816,26.0472011 15.5093259,25.9698999 15.3103125,25.9702552 C15.118125,25.9702552 14.9259375,26.0418567 14.7796875,26.1850599 L13.719375,27.2232825 C13.426875,27.5096888 13.426875,27.9750989 13.719375,28.2615052 L19.86375,34.2778724 C20.01,34.4210755 20.2021875,34.492677 20.394375,34.492677 C20.5865625,34.492677 20.7778125,34.4210755 20.9240625,34.2778724 L32.59125,22.8537513 C32.88375,22.567345 32.88375,22.1019349 32.59125,21.8155286 L31.531875,20.7773059 L31.5318749,20.7773059 Z" id="Shape" fill-rule="nonzero"></path>
                            <rect id="Rectangle" opacity="0" x="0" y="0" width="48" height="47"></rect>
                        </g>
                    </g>
                </g>
            </g>
        </g>
    </g>
</svg>
