<?xml version="1.0" encoding="UTF-8"?>
<svg width="310px" height="48px" viewBox="0 0 310 48" version="1.1" xmlns="http://www.w3.org/2000/svg" xmlns:xlink="http://www.w3.org/1999/xlink">
    <!-- Generator: Sketch 64 (93537) - https://sketch.com -->
    <title>covid19_SupportForTravelers_Compact</title>
    <desc>Created with Sketch.</desc>
    <defs>
        <path d="M3.0703125,8.078125 C3.63802083,8.078125 4.14583333,7.99348958 4.59375,7.82421875 L4.59375,7.82421875 L4.59375,7.0234375 C4.34895833,7.09895833 4.11328125,7.16080729 3.88671875,7.20898438 C3.66015625,7.25716146 3.42578125,7.28125 3.18359375,7.28125 C2.62369792,7.28125 2.19596354,7.1015625 1.90039062,6.7421875 C1.60481771,6.3828125 1.45703125,5.85286458 1.45703125,5.15234375 C1.45703125,4.48307292 1.61067708,3.95833333 1.91796875,3.578125 C2.22526042,3.19791667 2.64713542,3.0078125 3.18359375,3.0078125 C3.42057292,3.0078125 3.64648438,3.04231771 3.86132812,3.11132812 C4.07617188,3.18033854 4.27994792,3.26041667 4.47265625,3.3515625 L4.47265625,3.3515625 L4.80859375,2.57421875 C4.31380208,2.32942708 3.77473958,2.20703125 3.19140625,2.20703125 C2.63671875,2.20703125 2.15364583,2.32552083 1.7421875,2.5625 C1.33072917,2.79947917 1.01627604,3.140625 0.798828125,3.5859375 C0.581380208,4.03125 0.47265625,4.55078125 0.47265625,5.14453125 C0.47265625,6.08723958 0.696614583,6.81184896 1.14453125,7.31835938 C1.59244792,7.82486979 2.234375,8.078125 3.0703125,8.078125 Z M9.15340909,8.078125 C10.0049716,8.078125 10.6631747,7.8203125 11.1280185,7.3046875 C11.5928622,6.7890625 11.8252841,6.06640625 11.8252841,5.13671875 C11.8252841,4.20442708 11.5935133,3.48177083 11.1299716,2.96875 C10.6664299,2.45572917 10.0101799,2.19921875 9.16122159,2.19921875 C8.29924242,2.19921875 7.63583097,2.45182292 7.17098722,2.95703125 C6.70614347,3.46223958 6.47372159,4.18619792 6.47372159,5.12890625 C6.47372159,6.07161458 6.70484138,6.79882812 7.16708097,7.31054688 C7.62932055,7.82226562 8.29142992,8.078125 9.15340909,8.078125 Z M9.15340909,7.28125 C8.59611742,7.28125 8.17554451,7.09960938 7.89169034,6.73632812 C7.60783617,6.37304688 7.46590909,5.83984375 7.46590909,5.13671875 C7.46590909,4.43619792 7.60848722,3.90494792 7.89364347,3.54296875 C8.17879972,3.18098958 8.60132576,3 9.16122159,3 C9.71590909,3 10.1332268,3.18098958 10.4131747,3.54296875 C10.6931226,3.90494792 10.8330966,4.43619792 10.8330966,5.13671875 C10.8330966,5.84765625 10.6918205,6.3828125 10.4092685,6.7421875 C10.1267164,7.1015625 9.70809659,7.28125 9.15340909,7.28125 Z M16.2872869,8 L18.2872869,2.2890625 L17.3185369,2.2890625 L16.1271307,5.82421875 C16.0828598,5.94921875 16.0255682,6.14192708 15.9552557,6.40234375 C15.8849432,6.66276042 15.8328598,6.89192708 15.7990057,7.08984375 C15.7781723,6.95963542 15.7325994,6.76106771 15.6622869,6.49414062 C15.5919744,6.22721354 15.5255682,6.00911458 15.4630682,5.83984375 L15.4630682,5.83984375 L14.2716619,2.2890625 L13.3107244,2.2890625 L15.3029119,8 L16.2872869,8 Z M21.065696,8 L21.065696,2.2890625 L20.1321023,2.2890625 L20.1321023,8 L21.065696,8 Z M25.2620739,8 C26.2464489,8 27.0003551,7.75065104 27.5237926,7.25195312 C28.0472301,6.75325521 28.3089489,6.03255208 28.3089489,5.08984375 C28.3089489,4.20182292 28.0563447,3.51302083 27.5511364,3.0234375 C27.045928,2.53385417 26.3388968,2.2890625 25.4300426,2.2890625 L25.4300426,2.2890625 L23.6644176,2.2890625 L23.6644176,8 L25.2620739,8 Z M25.2620739,7.21484375 L24.5980114,7.21484375 L24.5980114,3.0703125 L25.4066051,3.0703125 C26.6852509,3.0703125 27.3245739,3.75390625 27.3245739,5.12109375 C27.3245739,6.51692708 26.6370739,7.21484375 25.2620739,7.21484375 L25.2620739,7.21484375 Z M32.1615767,6.24609375 L32.1615767,5.46484375 L30.1537642,5.46484375 L30.1537642,6.24609375 L32.1615767,6.24609375 Z M36.584517,8 L36.584517,2.2890625 L35.818892,2.2890625 L34.1392045,3.609375 L34.600142,4.19140625 C35.0975379,3.78776042 35.3898556,3.54817708 35.4770952,3.47265625 C35.5643348,3.39713542 35.6379025,3.328125 35.6977983,3.265625 C35.676965,3.5234375 35.6665483,3.87239583 35.6665483,4.3125 L35.6665483,4.3125 L35.6665483,8 L36.584517,8 Z M40.6832386,8.078125 C41.594697,8.078125 42.2769886,7.80078125 42.7301136,7.24609375 C43.1832386,6.69140625 43.4098011,5.8515625 43.4098011,4.7265625 C43.4098011,4.20052083 43.3277699,3.74934896 43.1637074,3.37304688 C42.9996449,2.99674479 42.766572,2.70963542 42.4644886,2.51171875 C42.1624053,2.31380208 41.8082386,2.21484375 41.4019886,2.21484375 C40.8238636,2.21484375 40.3674834,2.39127604 40.032848,2.74414062 C39.6982126,3.09700521 39.5308949,3.57161458 39.5308949,4.16796875 C39.5308949,4.71744792 39.6754261,5.14973958 39.9644886,5.46484375 C40.2535511,5.77994792 40.6506866,5.9375 41.1558949,5.9375 C41.4475616,5.9375 41.7021188,5.88541667 41.9195668,5.78125 C42.1370147,5.67708333 42.3225616,5.5078125 42.4762074,5.2734375 L42.4762074,5.2734375 L42.5230824,5.2734375 C42.4944366,5.98697917 42.3277699,6.51041667 42.0230824,6.84375 C41.7183949,7.17708333 41.2561553,7.34375 40.6363636,7.34375 C40.4019886,7.34375 40.1689157,7.31119792 39.9371449,7.24609375 L39.9371449,7.24609375 L39.9371449,8.015625 C40.0881866,8.05729167 40.3368845,8.078125 40.6832386,8.078125 Z M41.3863636,5.20703125 C41.0660511,5.20703125 40.8271188,5.11393229 40.6695668,4.92773438 C40.5120147,4.74153646 40.4332386,4.48567708 40.4332386,4.16015625 C40.4332386,3.78515625 40.5178741,3.49414062 40.6871449,3.28710938 C40.8564157,3.08007812 41.0999053,2.9765625 41.4176136,2.9765625 C41.625947,2.9765625 41.8108428,3.03515625 41.9723011,3.15234375 C42.1337595,3.26953125 42.2594105,3.42903646 42.3492543,3.63085938 C42.439098,3.83268229 42.4840199,4.04947917 42.4840199,4.28125 C42.4840199,4.52864583 42.3785511,4.74479167 42.1676136,4.9296875 C41.9566761,5.11458333 41.6962595,5.20703125 41.3863636,5.20703125 Z M49.7088068,8 L49.7088068,5.71875 L50.6306818,5.71875 L51.9978693,8 L53.0603693,8 L51.4470881,5.47265625 C52.1866714,5.17057292 52.5564631,4.6640625 52.5564631,3.953125 C52.5564631,3.39583333 52.3793797,2.97916667 52.0252131,2.703125 C51.6710464,2.42708333 51.1254735,2.2890625 50.3884943,2.2890625 L50.3884943,2.2890625 L48.7752131,2.2890625 L48.7752131,8 L49.7088068,8 Z M50.3572443,4.9453125 L49.7088068,4.9453125 L49.7088068,3.078125 L50.3259943,3.078125 C50.7504735,3.078125 51.0681818,3.1484375 51.2791193,3.2890625 C51.4900568,3.4296875 51.5955256,3.66145833 51.5955256,3.984375 C51.5955256,4.30208333 51.4978693,4.54166667 51.3025568,4.703125 C51.1072443,4.86458333 50.7921402,4.9453125 50.3572443,4.9453125 L50.3572443,4.9453125 Z M58.2098722,8 L58.2098722,7.20703125 L55.9129972,7.20703125 L55.9129972,5.4140625 L58.0653409,5.4140625 L58.0653409,4.6328125 L55.9129972,4.6328125 L55.9129972,3.078125 L58.2098722,3.078125 L58.2098722,2.2890625 L54.9794034,2.2890625 L54.9794034,8 L58.2098722,8 Z M61.7578125,8.078125 C62.4036458,8.078125 62.9101563,7.93359375 63.2773438,7.64453125 C63.6445313,7.35546875 63.828125,6.95703125 63.828125,6.44921875 C63.828125,6.19140625 63.7825521,5.96744792 63.6914063,5.77734375 C63.6002604,5.58723958 63.4570313,5.41666667 63.2617188,5.265625 C63.0664063,5.11458333 62.7591146,4.95182292 62.3398438,4.77734375 C61.9674479,4.62369792 61.7096354,4.5 61.5664063,4.40625 C61.4231771,4.3125 61.3203125,4.21289062 61.2578125,4.10742188 C61.1953125,4.00195312 61.1640625,3.875 61.1640625,3.7265625 C61.1640625,3.51041667 61.2421875,3.33658854 61.3984375,3.20507812 C61.5546875,3.07356771 61.7838542,3.0078125 62.0859375,3.0078125 C62.484375,3.0078125 62.9375,3.11458333 63.4453125,3.328125 L63.4453125,3.328125 L63.7421875,2.56640625 C63.2005208,2.32682292 62.65625,2.20703125 62.109375,2.20703125 C61.5390625,2.20703125 61.0846354,2.34375 60.7460938,2.6171875 C60.4075521,2.890625 60.2382813,3.265625 60.2382813,3.7421875 C60.2382813,4.12239583 60.3450521,4.44791667 60.5585938,4.71875 C60.7721354,4.98958333 61.1393229,5.23046875 61.6601563,5.44140625 C62.1653646,5.64453125 62.4986979,5.8203125 62.6601563,5.96875 C62.8216146,6.1171875 62.9023438,6.29817708 62.9023438,6.51171875 C62.9023438,6.74869792 62.8144531,6.9375 62.6386719,7.078125 C62.4628906,7.21875 62.1901042,7.2890625 61.8203125,7.2890625 C61.5677083,7.2890625 61.2949219,7.25390625 61.0019531,7.18359375 C60.7089844,7.11328125 60.4322917,7.01692708 60.171875,6.89453125 L60.171875,6.89453125 L60.171875,7.77734375 C60.5833333,7.97786458 61.1119792,8.078125 61.7578125,8.078125 Z M66.9580966,8 L66.9580966,5.86328125 L67.5518466,5.86328125 C68.2732008,5.86328125 68.8291903,5.70442708 69.2198153,5.38671875 C69.6104403,5.06901042 69.8057528,4.61197917 69.8057528,4.015625 C69.8057528,3.44791667 69.6280185,3.01822917 69.2725497,2.7265625 C68.917081,2.43489583 68.3825758,2.2890625 67.6690341,2.2890625 L67.6690341,2.2890625 L66.0245028,2.2890625 L66.0245028,8 L66.9580966,8 Z M67.4541903,5.078125 L66.9580966,5.078125 L66.9580966,3.0703125 L67.6065341,3.0703125 C68.0310133,3.0703125 68.3435133,3.15104167 68.5440341,3.3125 C68.7445549,3.47395833 68.8448153,3.71875 68.8448153,4.046875 C68.8448153,4.40104167 68.7328362,4.66145833 68.5088778,4.828125 C68.2849195,4.99479167 67.933357,5.078125 67.4541903,5.078125 L67.4541903,5.078125 Z M74.4357244,8.078125 C75.2872869,8.078125 75.9454901,7.8203125 76.4103338,7.3046875 C76.8751776,6.7890625 77.1075994,6.06640625 77.1075994,5.13671875 C77.1075994,4.20442708 76.8758286,3.48177083 76.4122869,2.96875 C75.9487453,2.45572917 75.2924953,2.19921875 74.4435369,2.19921875 C73.5815578,2.19921875 72.9181463,2.45182292 72.4533026,2.95703125 C71.9884588,3.46223958 71.7560369,4.18619792 71.7560369,5.12890625 C71.7560369,6.07161458 71.9871567,6.79882812 72.4493963,7.31054688 C72.9116359,7.82226562 73.5737453,8.078125 74.4357244,8.078125 Z M74.4357244,7.28125 C73.8784328,7.28125 73.4578598,7.09960938 73.1740057,6.73632812 C72.8901515,6.37304688 72.7482244,5.83984375 72.7482244,5.13671875 C72.7482244,4.43619792 72.8908026,3.90494792 73.1759588,3.54296875 C73.4611151,3.18098958 73.8836411,3 74.4435369,3 C74.9982244,3 75.4155421,3.18098958 75.6954901,3.54296875 C75.975438,3.90494792 76.1154119,4.43619792 76.1154119,5.13671875 C76.1154119,5.84765625 75.9741359,6.3828125 75.6915838,6.7421875 C75.4090317,7.1015625 74.9904119,7.28125 74.4357244,7.28125 Z M80.2727273,8 L80.2727273,5.03125 C80.2727273,4.63020833 80.2544981,4.1875 80.2180398,3.703125 L80.2180398,3.703125 L80.1985085,3.44921875 L80.2297585,3.44921875 L83.0383523,8 L84.1828835,8 L84.1828835,2.2890625 L83.3274148,2.2890625 L83.3274148,5.28125 C83.3274148,5.4921875 83.3352273,5.78580729 83.3508523,6.16210938 C83.3664773,6.53841146 83.3768939,6.75651042 83.3821023,6.81640625 L83.3821023,6.81640625 L83.3586648,6.81640625 L80.5578835,2.2890625 L79.425071,2.2890625 L79.425071,8 L80.2727273,8 Z M88.0042614,8.078125 C88.6500947,8.078125 89.1566051,7.93359375 89.5237926,7.64453125 C89.8909801,7.35546875 90.0745739,6.95703125 90.0745739,6.44921875 C90.0745739,6.19140625 90.0290009,5.96744792 89.9378551,5.77734375 C89.8467093,5.58723958 89.7034801,5.41666667 89.5081676,5.265625 C89.3128551,5.11458333 89.0055634,4.95182292 88.5862926,4.77734375 C88.2138968,4.62369792 87.9560843,4.5 87.8128551,4.40625 C87.6696259,4.3125 87.5667614,4.21289062 87.5042614,4.10742188 C87.4417614,4.00195312 87.4105114,3.875 87.4105114,3.7265625 C87.4105114,3.51041667 87.4886364,3.33658854 87.6448864,3.20507812 C87.8011364,3.07356771 88.030303,3.0078125 88.3323864,3.0078125 C88.7308239,3.0078125 89.1839489,3.11458333 89.6917614,3.328125 L89.6917614,3.328125 L89.9886364,2.56640625 C89.4469697,2.32682292 88.9026989,2.20703125 88.3558239,2.20703125 C87.7855114,2.20703125 87.3310843,2.34375 86.9925426,2.6171875 C86.6540009,2.890625 86.4847301,3.265625 86.4847301,3.7421875 C86.4847301,4.12239583 86.5915009,4.44791667 86.8050426,4.71875 C87.0185843,4.98958333 87.3857718,5.23046875 87.9066051,5.44140625 C88.4118134,5.64453125 88.7451468,5.8203125 88.9066051,5.96875 C89.0680634,6.1171875 89.1487926,6.29817708 89.1487926,6.51171875 C89.1487926,6.74869792 89.060902,6.9375 88.8851207,7.078125 C88.7093395,7.21875 88.436553,7.2890625 88.0667614,7.2890625 C87.8141572,7.2890625 87.5413707,7.25390625 87.248402,7.18359375 C86.9554332,7.11328125 86.6787405,7.01692708 86.4183239,6.89453125 L86.4183239,6.89453125 L86.4183239,7.77734375 C86.8297822,7.97786458 87.358428,8.078125 88.0042614,8.078125 Z M95.5014205,8 L95.5014205,7.20703125 L93.2045455,7.20703125 L93.2045455,5.4140625 L95.3568892,5.4140625 L95.3568892,4.6328125 L93.2045455,4.6328125 L93.2045455,3.078125 L95.5014205,3.078125 L95.5014205,2.2890625 L92.2709517,2.2890625 L92.2709517,8 L95.5014205,8 Z" id="path-1"></path>
        <path d="M9.86132812,33 L9.86132812,17.1269531 L15.0952148,17.1269531 L15.0952148,13.7255859 L0.540527344,13.7255859 L0.540527344,17.1269531 L5.77441406,17.1269531 L5.77441406,33 L9.86132812,33 Z M21.7661133,33 L21.7661133,25.4985352 C21.7661133,24.3120117 22.1242676,23.3891602 22.8405762,22.7299805 C23.5568848,22.0708008 24.5566406,21.7412109 25.8398438,21.7412109 C26.3056641,21.7412109 26.7011719,21.7851562 27.0263672,21.8730469 L27.0263672,21.8730469 L27.3295898,18.1025391 C26.9692383,18.0234375 26.5166016,17.9838867 25.9716797,17.9838867 C25.0576172,17.9838867 24.2116699,18.2365723 23.4338379,18.7419434 C22.6560059,19.2473145 22.0385742,19.9130859 21.581543,20.7392578 L21.581543,20.7392578 L21.3837891,20.7392578 L20.7905273,18.2607422 L17.7451172,18.2607422 L17.7451172,33 L21.7661133,33 Z M33.5917969,33.2636719 C34.7431641,33.2636719 35.677002,33.098877 36.3933105,32.7692871 C37.1096191,32.4396973 37.8061523,31.8486328 38.4829102,30.9960938 L38.4829102,30.9960938 L38.5883789,30.9960938 L39.3662109,33 L42.1743164,33 L42.1743164,23.1782227 C42.1743164,21.4204102 41.6469727,20.1108398 40.5922852,19.2495117 C39.5375977,18.3881836 38.0214844,17.9575195 36.0439453,17.9575195 C33.9785156,17.9575195 32.0976562,18.4013672 30.4013672,19.2890625 L30.4013672,19.2890625 L31.7329102,22.0048828 C33.3237305,21.2929688 34.7080078,20.9370117 35.8857422,20.9370117 C37.4150391,20.9370117 38.1796875,21.684082 38.1796875,23.1782227 L38.1796875,23.1782227 L38.1796875,23.8242188 L35.6220703,23.9033203 C33.4160156,23.9824219 31.7658691,24.3933105 30.6716309,25.1359863 C29.5773926,25.8786621 29.0302734,27.0322266 29.0302734,28.5966797 C29.0302734,30.0908203 29.4367676,31.2421875 30.2497559,32.0507812 C31.0627441,32.859375 32.1767578,33.2636719 33.5917969,33.2636719 Z M35.1079102,30.3237305 C33.8071289,30.3237305 33.1567383,29.7568359 33.1567383,28.6230469 C33.1567383,27.8320312 33.4423828,27.2431641 34.0136719,26.8564453 C34.5849609,26.4697266 35.4550781,26.2587891 36.6240234,26.2236328 L36.6240234,26.2236328 L38.1796875,26.1708984 L38.1796875,27.3837891 C38.1796875,28.2714844 37.9006348,28.9833984 37.3425293,29.5195312 C36.7844238,30.0556641 36.0395508,30.3237305 35.1079102,30.3237305 Z M53.9472656,33 L59.5634766,18.2607422 L55.3579102,18.2607422 L52.5234375,26.6586914 C52.171875,27.8276367 51.9741211,28.8339844 51.9301758,29.6777344 L51.9301758,29.6777344 L51.8510742,29.6777344 C51.7719727,28.7285156 51.5742188,27.722168 51.2578125,26.6586914 L51.2578125,26.6586914 L48.4101562,18.2607422 L44.2045898,18.2607422 L49.8208008,33 L53.9472656,33 Z M68.34375,33.2636719 C69.4951172,33.2636719 70.4707031,33.1779785 71.2705078,33.0065918 C72.0703125,32.8352051 72.8217773,32.5737305 73.5249023,32.222168 L73.5249023,32.222168 L73.5249023,29.1108398 C72.6635742,29.5151367 71.8374023,29.8095703 71.0463867,29.9941406 C70.2553711,30.1787109 69.4160156,30.2709961 68.5283203,30.2709961 C67.3857422,30.2709961 66.4980469,29.9501953 65.8652344,29.3085938 C65.2324219,28.6669922 64.894043,27.7749023 64.8500977,26.6323242 L64.8500977,26.6323242 L74.3554688,26.6323242 L74.3554688,24.6811523 C74.3554688,22.5893555 73.7753906,20.9501953 72.6152344,19.7636719 C71.4550781,18.5771484 69.8334961,17.9838867 67.7504883,17.9838867 C65.5708008,17.9838867 63.8635254,18.6584473 62.6286621,20.0075684 C61.3937988,21.3566895 60.7763672,23.2661133 60.7763672,25.7358398 C60.7763672,28.1352539 61.4443359,29.9897461 62.7802734,31.2993164 C64.1162109,32.6088867 65.9707031,33.2636719 68.34375,33.2636719 Z M70.5849609,23.9560547 L64.9423828,23.9560547 C65.0126953,22.9628906 65.2895508,22.1960449 65.7729492,21.6555176 C66.2563477,21.1149902 66.9243164,20.8447266 67.7768555,20.8447266 C68.6293945,20.8447266 69.3061523,21.1149902 69.8071289,21.6555176 C70.3081055,22.1960449 70.5673828,22.9628906 70.5849609,23.9560547 L70.5849609,23.9560547 Z M81.6459961,33 L81.6459961,12.4863281 L77.625,12.4863281 L77.625,33 L81.6459961,33 Z M92.5356445,33.2636719 C93.6870117,33.2636719 94.6625977,33.1779785 95.4624023,33.0065918 C96.262207,32.8352051 97.0136719,32.5737305 97.7167969,32.222168 L97.7167969,32.222168 L97.7167969,29.1108398 C96.8554688,29.5151367 96.0292969,29.8095703 95.2382812,29.9941406 C94.4472656,30.1787109 93.6079102,30.2709961 92.7202148,30.2709961 C91.5776367,30.2709961 90.6899414,29.9501953 90.0571289,29.3085938 C89.4243164,28.6669922 89.0859375,27.7749023 89.0419922,26.6323242 L89.0419922,26.6323242 L98.5473633,26.6323242 L98.5473633,24.6811523 C98.5473633,22.5893555 97.9672852,20.9501953 96.8071289,19.7636719 C95.6469727,18.5771484 94.0253906,17.9838867 91.9423828,17.9838867 C89.7626953,17.9838867 88.0554199,18.6584473 86.8205566,20.0075684 C85.5856934,21.3566895 84.9682617,23.2661133 84.9682617,25.7358398 C84.9682617,28.1352539 85.6362305,29.9897461 86.972168,31.2993164 C88.3081055,32.6088867 90.1625977,33.2636719 92.5356445,33.2636719 Z M94.7768555,23.9560547 L89.1342773,23.9560547 C89.2045898,22.9628906 89.4814453,22.1960449 89.9648438,21.6555176 C90.4482422,21.1149902 91.1162109,20.8447266 91.96875,20.8447266 C92.8212891,20.8447266 93.4980469,21.1149902 93.9990234,21.6555176 C94.5,22.1960449 94.7592773,22.9628906 94.7768555,23.9560547 L94.7768555,23.9560547 Z M105.837891,33 L105.837891,25.4985352 C105.837891,24.3120117 106.196045,23.3891602 106.912354,22.7299805 C107.628662,22.0708008 108.628418,21.7412109 109.911621,21.7412109 C110.377441,21.7412109 110.772949,21.7851562 111.098145,21.8730469 L111.098145,21.8730469 L111.401367,18.1025391 C111.041016,18.0234375 110.588379,17.9838867 110.043457,17.9838867 C109.129395,17.9838867 108.283447,18.2365723 107.505615,18.7419434 C106.727783,19.2473145 106.110352,19.9130859 105.65332,20.7392578 L105.65332,20.7392578 L105.455566,20.7392578 L104.862305,18.2607422 L101.816895,18.2607422 L101.816895,33 L105.837891,33 Z M125.679199,33.2636719 C127.911621,33.2636719 129.654053,32.7626953 130.906494,31.7607422 C132.158936,30.7587891 132.785156,29.3876953 132.785156,27.6474609 C132.785156,26.390625 132.451172,25.3293457 131.783203,24.463623 C131.115234,23.5979004 129.880371,22.734375 128.078613,21.8730469 C126.716309,21.2226562 125.852783,20.7722168 125.488037,20.5217285 C125.123291,20.2712402 124.857422,20.0119629 124.69043,19.7438965 C124.523438,19.4758301 124.439941,19.1616211 124.439941,18.8012695 C124.439941,18.2211914 124.646484,17.7509766 125.05957,17.390625 C125.472656,17.0302734 126.065918,16.8500977 126.839355,16.8500977 C127.489746,16.8500977 128.151123,16.9335938 128.823486,17.1005859 C129.49585,17.2675781 130.346191,17.5620117 131.374512,17.9838867 L131.374512,17.9838867 L132.692871,14.8066406 C131.699707,14.3759766 130.748291,14.0419922 129.838623,13.8046875 C128.928955,13.5673828 127.973145,13.4487305 126.971191,13.4487305 C124.932129,13.4487305 123.334717,13.9365234 122.178955,14.9121094 C121.023193,15.8876953 120.445312,17.2280273 120.445312,18.9331055 C120.445312,19.8383789 120.621094,20.6293945 120.972656,21.3061523 C121.324219,21.9829102 121.794434,22.5761719 122.383301,23.0859375 C122.972168,23.5957031 123.855469,24.1274414 125.033203,24.6811523 C126.290039,25.2788086 127.122803,25.7138672 127.531494,25.9863281 C127.940186,26.2587891 128.25,26.5422363 128.460938,26.8366699 C128.671875,27.1311035 128.777344,27.4672852 128.777344,27.8452148 C128.777344,28.5219727 128.537842,29.0317383 128.058838,29.3745117 C127.579834,29.7172852 126.89209,29.8886719 125.995605,29.8886719 C125.248535,29.8886719 124.424561,29.7700195 123.523682,29.5327148 C122.622803,29.2954102 121.521973,28.8867188 120.221191,28.3066406 L120.221191,28.3066406 L120.221191,32.1035156 C121.803223,32.8769531 123.622559,33.2636719 125.679199,33.2636719 Z M141.117188,33.2636719 C142.12793,33.2636719 143.028809,33.0769043 143.819824,32.7033691 C144.61084,32.329834 145.22168,31.800293 145.652344,31.1147461 L145.652344,31.1147461 L145.863281,31.1147461 L146.403809,33 L149.48877,33 L149.48877,18.2607422 L145.467773,18.2607422 L145.467773,25.1953125 C145.467773,26.9355469 145.217285,28.1813965 144.716309,28.9328613 C144.215332,29.6843262 143.402344,30.0600586 142.277344,30.0600586 C141.451172,30.0600586 140.849121,29.7941895 140.471191,29.2624512 C140.093262,28.7307129 139.904297,27.9331055 139.904297,26.8696289 L139.904297,26.8696289 L139.904297,18.2607422 L135.883301,18.2607422 L135.883301,27.871582 C135.883301,29.6118164 136.322754,30.9455566 137.20166,31.8728027 C138.080566,32.8000488 139.385742,33.2636719 141.117188,33.2636719 Z M157.728516,39.4863281 L157.728516,33.5141602 C157.728516,33.3208008 157.658203,32.6088867 157.517578,31.378418 L157.517578,31.378418 L157.728516,31.378418 C158.712891,32.6352539 160.070801,33.2636719 161.802246,33.2636719 C162.953613,33.2636719 163.955566,32.9604492 164.808105,32.3540039 C165.660645,31.7475586 166.317627,30.8642578 166.779053,29.7041016 C167.240479,28.5439453 167.471191,27.1772461 167.471191,25.6040039 C167.471191,23.2133789 166.979004,21.3457031 165.994629,20.0009766 C165.010254,18.65625 163.647949,17.9838867 161.907715,17.9838867 C160.062012,17.9838867 158.668945,18.7133789 157.728516,20.1723633 L157.728516,20.1723633 L157.543945,20.1723633 L156.977051,18.2607422 L153.70752,18.2607422 L153.70752,39.4863281 L157.728516,39.4863281 Z M160.668457,30.0073242 C159.648926,30.0073242 158.904053,29.6645508 158.433838,28.9790039 C157.963623,28.293457 157.728516,27.159668 157.728516,25.5776367 L157.728516,25.5776367 L157.728516,25.1425781 C157.746094,23.7363281 157.983398,22.7277832 158.44043,22.1169434 C158.897461,21.5061035 159.622559,21.2006836 160.615723,21.2006836 C161.564941,21.2006836 162.261475,21.5632324 162.705322,22.2883301 C163.14917,23.0134277 163.371094,24.1010742 163.371094,25.5512695 C163.371094,28.5219727 162.470215,30.0073242 160.668457,30.0073242 Z M174.814453,39.4863281 L174.814453,33.5141602 C174.814453,33.3208008 174.744141,32.6088867 174.603516,31.378418 L174.603516,31.378418 L174.814453,31.378418 C175.798828,32.6352539 177.156738,33.2636719 178.888184,33.2636719 C180.039551,33.2636719 181.041504,32.9604492 181.894043,32.3540039 C182.746582,31.7475586 183.403564,30.8642578 183.86499,29.7041016 C184.326416,28.5439453 184.557129,27.1772461 184.557129,25.6040039 C184.557129,23.2133789 184.064941,21.3457031 183.080566,20.0009766 C182.096191,18.65625 180.733887,17.9838867 178.993652,17.9838867 C177.147949,17.9838867 175.754883,18.7133789 174.814453,20.1723633 L174.814453,20.1723633 L174.629883,20.1723633 L174.062988,18.2607422 L170.793457,18.2607422 L170.793457,39.4863281 L174.814453,39.4863281 Z M177.754395,30.0073242 C176.734863,30.0073242 175.98999,29.6645508 175.519775,28.9790039 C175.049561,28.293457 174.814453,27.159668 174.814453,25.5776367 L174.814453,25.5776367 L174.814453,25.1425781 C174.832031,23.7363281 175.069336,22.7277832 175.526367,22.1169434 C175.983398,21.5061035 176.708496,21.2006836 177.70166,21.2006836 C178.650879,21.2006836 179.347412,21.5632324 179.79126,22.2883301 C180.235107,23.0134277 180.457031,24.1010742 180.457031,25.5512695 C180.457031,28.5219727 179.556152,30.0073242 177.754395,30.0073242 Z M194.088867,33.2636719 C196.347656,33.2636719 198.109863,32.5869141 199.375488,31.2333984 C200.641113,29.8798828 201.273926,28.003418 201.273926,25.6040039 C201.273926,24.0571289 200.983887,22.7080078 200.403809,21.5566406 C199.82373,20.4052734 198.993164,19.5219727 197.912109,18.9067383 C196.831055,18.2915039 195.583008,17.9838867 194.167969,17.9838867 C191.891602,17.9838867 190.125,18.6518555 188.868164,19.987793 C187.611328,21.3237305 186.98291,23.1958008 186.98291,25.6040039 C186.98291,27.1508789 187.272949,28.5043945 187.853027,29.6645508 C188.433105,30.824707 189.263672,31.7145996 190.344727,32.3342285 C191.425781,32.9538574 192.673828,33.2636719 194.088867,33.2636719 Z M194.141602,30.0336914 C193.060547,30.0336914 192.280518,29.6601562 191.801514,28.9130859 C191.32251,28.1660156 191.083008,27.0629883 191.083008,25.6040039 C191.083008,24.1362305 191.320312,23.0397949 191.794922,22.3146973 C192.269531,21.5895996 193.042969,21.2270508 194.115234,21.2270508 C195.196289,21.2270508 195.974121,21.5917969 196.44873,22.3212891 C196.92334,23.0507812 197.160645,24.1450195 197.160645,25.6040039 C197.160645,27.0717773 196.925537,28.177002 196.455322,28.9196777 C195.985107,29.6623535 195.213867,30.0336914 194.141602,30.0336914 Z M208.617188,33 L208.617188,25.4985352 C208.617188,24.3120117 208.975342,23.3891602 209.69165,22.7299805 C210.407959,22.0708008 211.407715,21.7412109 212.690918,21.7412109 C213.156738,21.7412109 213.552246,21.7851562 213.877441,21.8730469 L213.877441,21.8730469 L214.180664,18.1025391 C213.820312,18.0234375 213.367676,17.9838867 212.822754,17.9838867 C211.908691,17.9838867 211.062744,18.2365723 210.284912,18.7419434 C209.50708,19.2473145 208.889648,19.9130859 208.432617,20.7392578 L208.432617,20.7392578 L208.234863,20.7392578 L207.641602,18.2607422 L204.596191,18.2607422 L204.596191,33 L208.617188,33 Z M221.90625,33.2636719 C223.365234,33.2636719 224.595703,33.0395508 225.597656,32.5913086 L225.597656,32.5913086 L225.597656,29.5986328 C224.613281,29.90625 223.769531,30.0600586 223.066406,30.0600586 C222.539062,30.0600586 222.11499,29.9238281 221.794189,29.6513672 C221.473389,29.3789062 221.312988,28.9570312 221.312988,28.3857422 L221.312988,28.3857422 L221.312988,21.2797852 L225.439453,21.2797852 L225.439453,18.2607422 L221.312988,18.2607422 L221.312988,15.1230469 L218.742188,15.1230469 L217.582031,18.234375 L215.367188,19.5791016 L215.367188,21.2797852 L217.291992,21.2797852 L217.291992,28.3857422 C217.291992,30.0117188 217.658936,31.2312012 218.392822,32.0441895 C219.126709,32.8571777 220.297852,33.2636719 221.90625,33.2636719 Z" id="path-2"></path>
    </defs>
    <g id="covid19_SupportForTravelers_Compact" stroke="none" stroke-width="1" fill="none" fill-rule="evenodd">
        <g id="BC-Common-Components-Catalogue-Header">
            <g id="Logo" transform="translate(0.000000, 8.000000)" fill-rule="nonzero">
                <path d="M7.1832,27.2344 C14.7192,27.2344 25.1376,31.4824 32.7032,31.4824 C38.0976,31.4824 43.3744,30.0496 46.3584,27.9256 C46.5674746,26.6605057 46.6744861,25.3806482 46.6788018,24.0984 C46.7269763,15.8748922 42.3676553,8.25518741 35.2538743,4.12934688 C28.1400932,0.00350633948 19.3615068,0.00350633948 12.2477257,4.12934688 C5.13394468,8.25518741 0.77462367,15.8748922 0.822798229,24.0984 C0.81937026,25.3697381 0.927791176,26.6389321 1.1472,27.8912 C3.13617001,27.4964907 5.15588495,27.2767179 7.1832,27.2344 Z" id="Path_350" fill="#FFFFFF"></path>
                <g id="Group_15" transform="translate(1.046400, 0.118400)" fill="#FDB913">
                    <polygon id="Path_351" points="37.5272 18.6696 38.4208 19.0408 40.444 17.6416"></polygon>
                    <path d="M3.7256,17.1024 L1.3488,16.2592 L1.4672,15.9728 L4.148,16.8664 L4.1648,16.8664 L4.5192,16.664 L4.6544,16.58 L1.7192,15.332 L1.8376,15.0288 L8.3976,17.6584 L8.6168,17.5744 L2.124,14.4216 L2.276,14.1184 L9.1376,17.3184 L9.2384,17.268 L2.5792,13.492 L2.7144,13.2056 L12.32,18.4344 C12.404,18.2824 12.56,18.0296 12.64,17.8744 C10.3564122,15.7402315 7.95904259,13.7311627 5.4584,11.856 C8.07337946,13.565601 10.7804003,15.1300967 13.5672,16.5424 C13.7192,16.3568 13.8368,16.2056 13.9888,16.0368 L5.7992,8.8248 L6.0184,8.6056 L12.644,14.2536 L6.5072,8.1 L6.7472,7.86 L13.6272,14.5192 L7.2152,7.4088 L7.468,7.1896 L13.388,13.5288 L7.9744,6.72 L8.2144,6.5008 L15.1432,14.9304 C15.3288,14.7784 15.4632,14.6608 15.6656,14.5088 C14.3560926,11.6870838 12.8920039,8.93971418 11.28,6.2792 C13.0574727,8.83034997 14.9709043,11.2840289 17.012,13.6296 C17.2144,13.5112 17.4168,13.4104 17.6192,13.3096 L17.5856,13.2928 L12.7112,3.6 L12.9976,3.4648 L17.0272,11.1696 L13.6384,3.1936 L13.9416,3.0584 L17.84,11.8088 L14.5488,2.8064 L14.852,2.688 L17.972,10.7968 L15.5272,2.452 L15.8304,2.3512 L19.0672,12.7024 L19.0672,12.736 L19.0672,12.736 L19.7248,12.5336 C19.5610173,9.44470515 19.2346988,6.36657707 18.7472,3.312 C19.4337132,6.32867676 20.2834971,9.30585786 21.2928,12.2304 C21.512,12.1968 21.748,12.18 21.984,12.1632 L21.984,12.1464 L22.0176,12.1464 L22.0008,12.1296 L21.0904,1.3056 L21.4104,1.2888 L22.2536,9.9544 L22.1016,1.272 L22.4384,1.2552 L22.7752,10.8312 L23.1136,1.2552 L23.4504,1.272 L23.2984,9.9544 L24.1416,1.2888 L24.4616,1.3056 L23.5816,12.112 L23.5648,12.1288 L23.5816,12.1288 C23.8008,12.1456 24.0368,12.1624 24.256,12.196 C25.2677333,9.27784047 26.1188747,6.30645682 26.8056,3.2952 C26.3174283,6.34405226 25.9911044,9.41662383 25.828,12.5 C26.0516711,12.5519772 26.2714125,12.6196105 26.4856,12.7024 L29.7224,2.3824 L30.0256,2.4832 L27.564,10.8312 L30.6824,2.72 L30.9856,2.8384 L27.716,11.84 L31.6096,3.0928 L31.9128,3.228 L28.4728,11.2192 L32.5024,3.5144 L32.7888,3.6496 L27.952,13.3088 L27.952,13.3088 C28.1544,13.4096 28.34,13.5112 28.5424,13.612 C30.5721701,11.2778874 32.4741506,8.83565044 34.24,6.296 C32.6360795,8.93941471 31.1784215,11.6688512 29.8736,14.472 C30.0606879,14.6088478 30.2406561,14.7551722 30.4128,14.9104 L37.2576,6.5656 L37.4976,6.7848 L32.08,13.596 L38,7.2568 L38.2528,7.476 L31.8464,14.5904 L38.7264,7.9312 L38.9664,8.1712 L32.824,14.304 L39.4496,8.656 L39.6688,8.8752 L31.5592,16.0064 L31.5592,16.0064 C31.6944,16.1584 31.8288,16.3264 31.964,16.4952 C34.7285765,15.0934057 37.4132368,13.5392833 40.0056,11.84 C37.5251756,13.7024659 35.1447969,15.6945709 32.8744,17.808 C32.9752,17.9768 33.1272,18.2632 33.2288,18.432 L42.7032,13.2736 L42.8384,13.56 L35.2688,17.8592 L43.1416,14.2008 L43.2936,14.504 L35.9592,18.08 L36.0944,18.1304 L43.5456,15.1128 L43.664,15.416 L36.7352,18.3664 L36.8704,18.4168 L41.4888,16.88 L42.18,16.3912 L42.42,16.56 L43.94,16.0544 L44.0584,16.3408 L42.7368,16.8 L44.64,18.2488 L45.2472,18.5856 C42.7211131,8.04690878 33.2355403,0.661042302 22.3991598,0.795153551 C11.5627793,0.9292648 2.26289911,8.54762039 -0.0016,19.1456 C0.032,19.1288 0.0488,19.112 0.0824,19.112 L0.3688,18.9936 L0.5376,18.9096 L3.7256,17.1024 Z" id="Path_352"></path>
                </g>
                <path d="M0.912,28.3648 C2.98501629,27.9591831 5.08837384,27.7279743 7.2,27.6736 C14.736,27.6736 25.1544,31.9216 32.72,31.9216 C38.2664,31.9216 43.68,30.4016 46.628,28.1792 C46.8659678,26.8435882 46.9845692,25.489444 46.9824292,24.1328 C46.9845649,22.3042546 46.7697294,20.4819124 46.3424,18.704 L43.1936,16.9512 L39.5016,19.5472 L37.0064,18.5872 C36.1632,19.0088 30.9712,22.4816 30.9712,22.4816 L28.9816,21.0312 L26.844,20.6096 L23.9952,18.536 L20.7248,20.776 C20.7248,20.776 17.0664,22.9 16.9488,22.9 C16.8312,22.9 12.5488,19.5112 12.5488,19.5112 L10.5424,17.4376 C10.2056,17.6568 8.8568,18.264 8.8568,18.264 L8.7896,18.2808 L7.484,17.8784 L5.9016,17.0352 L1.1312,19.2272 C1.0976,19.244 1.0808,19.2608 1.0472,19.2608 C0.39899532,22.2564904 0.353037241,25.3511824 0.912,28.3648 L0.912,28.3648 Z" id="Path_353" fill="#004B8D"></path>
            </g>
            <rect id="Rectangle" fill="#FCBA19" x="64" y="0" width="1" height="48"></rect>
        </g>
        <g id="Group-Copy" transform="translate(83.000000, 4.000000)" fill-rule="nonzero">
            <g id="COVID-19RESPONSE">
                <use fill="#000000" xlink:href="#path-1"></use>
                <use fill="#FFFFFF" xlink:href="#path-1"></use>
            </g>
            <g id="TravelerSupport">
                <use fill="#000000" xlink:href="#path-2"></use>
                <use fill="#FFFFFF" xlink:href="#path-2"></use>
            </g>
        </g>
    </g>
</svg>