<?xml version="1.0" encoding="UTF-8"?>
<svg width="263px" height="40px" viewBox="0 0 263 40" version="1.1" xmlns="http://www.w3.org/2000/svg" xmlns:xlink="http://www.w3.org/1999/xlink">
    <!-- Generator: Sketch 64 (93537) - https://sketch.com -->
    <title>traveller-support</title>
    <desc>Created with Sketch.</desc>
    <defs>
        <path d="M2.55859375,6.3984375 C3.03168403,6.3984375 3.45486111,6.32790799 3.828125,6.18684896 L3.828125,6.18684896 L3.828125,5.51953125 C3.62413194,5.58246528 3.42773438,5.63400608 3.23893229,5.67415365 C3.05013021,5.71430122 2.85481771,5.734375 2.65299479,5.734375 C2.18641493,5.734375 1.82996962,5.58463542 1.58365885,5.28515625 C1.33734809,4.98567708 1.21419271,4.54405382 1.21419271,3.96028646 C1.21419271,3.40256076 1.3422309,2.96527778 1.59830729,2.6484375 C1.85438368,2.33159722 2.20594618,2.17317708 2.65299479,2.17317708 C2.85047743,2.17317708 3.03873698,2.20193142 3.21777344,2.2594401 C3.3968099,2.31694878 3.56662326,2.38368056 3.72721354,2.45963542 L3.72721354,2.45963542 L4.00716146,1.81184896 C3.59483507,1.6078559 3.14561632,1.50585938 2.65950521,1.50585938 C2.19726562,1.50585938 1.79470486,1.60460069 1.45182292,1.80208333 C1.10894097,1.99956597 0.846896701,2.28385417 0.665690104,2.65494792 C0.484483507,3.02604167 0.393880208,3.45898438 0.393880208,3.95377604 C0.393880208,4.73936632 0.580512153,5.34320747 0.953776042,5.76529948 C1.32703993,6.18739149 1.86197917,6.3984375 2.55859375,6.3984375 Z M7.76130448,6.3984375 C8.47093989,6.3984375 9.0194425,6.18359375 9.40681229,5.75390625 C9.79418208,5.32421875 9.98786698,4.72200521 9.98786698,3.94726562 C9.98786698,3.1703559 9.79472462,2.56814236 9.40843989,2.140625 C9.02215517,1.71310764 8.47528017,1.49934896 7.76781489,1.49934896 C7.04949892,1.49934896 6.49665604,1.70985243 6.10928625,2.13085938 C5.72191646,2.55186632 5.52823156,3.15516493 5.52823156,3.94075521 C5.52823156,4.72634549 5.72083139,5.33235677 6.10603104,5.75878906 C6.49123069,6.18522135 7.04298851,6.3984375 7.76130448,6.3984375 Z M7.76130448,5.734375 C7.29689476,5.734375 6.94641733,5.58300781 6.70987219,5.28027344 C6.47332705,4.97753906 6.35505448,4.53320312 6.35505448,3.94726562 C6.35505448,3.36349826 6.47386958,2.92078993 6.71149979,2.61914062 C6.94913,2.31749132 7.30123503,2.16666667 7.76781489,2.16666667 C8.23005448,2.16666667 8.57781923,2.31749132 8.81110917,2.61914062 C9.0443991,2.92078993 9.16104406,3.36349826 9.16104406,3.94726562 C9.16104406,4.53971354 9.04331403,4.98567708 8.80785396,5.28515625 C8.57239389,5.58463542 8.22354406,5.734375 7.76130448,5.734375 Z M13.7713069,6.33333333 L15.4379735,1.57421875 L14.6306819,1.57421875 L13.6378433,4.52018229 C13.600951,4.62434896 13.5532079,4.78493924 13.4946142,5.00195312 C13.4360204,5.21896701 13.3926176,5.40993924 13.3644058,5.57486979 C13.3470447,5.46636285 13.3090673,5.30088976 13.2504735,5.07845052 C13.1918798,4.85601128 13.1365412,4.67426215 13.0844579,4.53320312 L13.0844579,4.53320312 L12.0916194,1.57421875 L11.2908381,1.57421875 L12.9509944,6.33333333 L13.7713069,6.33333333 Z M17.7533145,6.33333333 L17.7533145,1.57421875 L16.9753197,1.57421875 L16.9753197,6.33333333 L17.7533145,6.33333333 Z M21.250296,6.33333333 C22.0706085,6.33333333 22.6988637,6.12554253 23.1350617,5.70996094 C23.5712596,5.29437934 23.7893585,4.6937934 23.7893585,3.90820312 C23.7893585,3.16818576 23.5788551,2.59418403 23.1578481,2.18619792 C22.7368412,1.77821181 22.1476485,1.57421875 21.39027,1.57421875 L21.39027,1.57421875 L19.9189158,1.57421875 L19.9189158,6.33333333 L21.250296,6.33333333 Z M21.250296,5.67903646 L20.6969106,5.67903646 L20.6969106,2.22526042 L21.3707387,2.22526042 C22.4362769,2.22526042 22.969046,2.79492188 22.969046,3.93424479 C22.969046,5.09743924 22.3961294,5.67903646 21.250296,5.67903646 L21.250296,5.67903646 Z M26.9998818,4.87174479 L26.9998818,4.22070312 L25.3267047,4.22070312 L25.3267047,4.87174479 L26.9998818,4.87174479 Z M30.6856654,6.33333333 L30.6856654,1.57421875 L30.0476446,1.57421875 L28.647905,2.67447917 L29.0320196,3.15950521 C29.4465161,2.82313368 29.6901142,2.6234809 29.7628138,2.56054688 C29.8355135,2.49761285 29.8968199,2.44010417 29.9467331,2.38802083 C29.929372,2.60286458 29.9206915,2.89366319 29.9206915,3.26041667 L29.9206915,3.26041667 L29.9206915,6.33333333 L30.6856654,6.33333333 Z M34.1012668,6.3984375 C34.8608154,6.3984375 35.4293918,6.16731771 35.8069959,5.70507812 C36.1846001,5.24283854 36.3734022,4.54296875 36.3734022,3.60546875 C36.3734022,3.16710069 36.3050428,2.79112413 36.1683241,2.47753906 C36.0316053,2.16395399 35.8373779,1.92469618 35.5856418,1.75976562 C35.3339057,1.59483507 35.0387668,1.51236979 34.7002251,1.51236979 C34.2184543,1.51236979 33.8381374,1.6593967 33.5592746,1.95345052 C33.2804117,2.24750434 33.1409803,2.64301215 33.1409803,3.13997396 C33.1409803,3.59787326 33.261423,3.95811632 33.5023084,4.22070312 C33.7431938,4.48328993 34.07414,4.61458333 34.495147,4.61458333 C34.7382025,4.61458333 34.9503336,4.57118056 35.1315402,4.484375 C35.3127468,4.39756944 35.4673692,4.25651042 35.5954074,4.06119792 L35.5954074,4.06119792 L35.6344699,4.06119792 C35.6105984,4.65581597 35.4717095,5.09201389 35.2178032,5.36979167 C34.963897,5.64756944 34.5786973,5.78645833 34.0622043,5.78645833 C33.8668918,5.78645833 33.6726643,5.7593316 33.479522,5.70507812 L33.479522,5.70507812 L33.479522,6.34635417 C33.60539,6.38107639 33.8126383,6.3984375 34.1012668,6.3984375 Z M34.6872043,4.00585938 C34.4202772,4.00585938 34.2211669,3.92827691 34.0898735,3.77311198 C33.9585801,3.61794705 33.8929334,3.4047309 33.8929334,3.13346354 C33.8929334,2.82096354 33.9634629,2.57845052 34.104522,2.40592448 C34.245581,2.23339844 34.448489,2.14713542 34.7132459,2.14713542 C34.886857,2.14713542 35.0409369,2.19596354 35.1754855,2.29361979 C35.3100341,2.39127604 35.4147433,2.52419705 35.4896131,2.69238281 C35.5644829,2.86056858 35.6019178,3.04123264 35.6019178,3.234375 C35.6019178,3.44053819 35.5140272,3.62065972 35.3382459,3.77473958 C35.1624647,3.92881944 34.9454508,4.00585938 34.6872043,4.00585938 Z M41.6225736,6.33333333 L41.6225736,4.43229167 L42.3908028,4.43229167 L43.5301257,6.33333333 L44.4155424,6.33333333 L43.0711413,4.22721354 C43.6874608,3.97547743 43.9956205,3.55338542 43.9956205,2.9609375 C43.9956205,2.49652778 43.8480511,2.14930556 43.5529122,1.91927083 C43.2577733,1.68923611 42.8031292,1.57421875 42.1889799,1.57421875 L42.1889799,1.57421875 L40.8445788,1.57421875 L40.8445788,6.33333333 L41.6225736,6.33333333 Z M42.1629382,3.78776042 L41.6225736,3.78776042 L41.6225736,2.23177083 L42.1368966,2.23177083 C42.4906292,2.23177083 42.7553861,2.29036458 42.9311674,2.40755208 C43.1069486,2.52473958 43.1948393,2.71788194 43.1948393,2.98697917 C43.1948393,3.25173611 43.1134591,3.45138889 42.9506986,3.5859375 C42.7879382,3.72048611 42.5253514,3.78776042 42.1629382,3.78776042 L42.1629382,3.78776042 Z M48.7067948,6.33333333 L48.7067948,5.67252604 L46.7927323,5.67252604 L46.7927323,4.17838542 L48.5863521,4.17838542 L48.5863521,3.52734375 L46.7927323,3.52734375 L46.7927323,2.23177083 L48.7067948,2.23177083 L48.7067948,1.57421875 L46.0147375,1.57421875 L46.0147375,6.33333333 L48.7067948,6.33333333 Z M51.6634118,6.3984375 C52.2016062,6.3984375 52.6236982,6.27799479 52.9296878,6.03710938 C53.2356774,5.79622396 53.3886722,5.46419271 53.3886722,5.04101562 C53.3886722,4.82617188 53.3506947,4.63953993 53.2747399,4.48111979 C53.198785,4.32269965 53.0794274,4.18055556 52.916667,4.0546875 C52.7539065,3.92881944 52.4978302,3.79318576 52.1484378,3.64778646 C51.8381079,3.51974826 51.6232642,3.41666667 51.5039065,3.33854167 C51.3845489,3.26041667 51.2988284,3.17740885 51.2467451,3.08951823 C51.1946618,3.0016276 51.1686201,2.89583333 51.1686201,2.77213542 C51.1686201,2.59201389 51.2337243,2.44715712 51.3639326,2.3375651 C51.4941409,2.22797309 51.6851131,2.17317708 51.9368493,2.17317708 C52.2688805,2.17317708 52.6464847,2.26215278 53.0696618,2.44010417 L53.0696618,2.44010417 L53.3170576,1.80533854 C52.8656687,1.60568576 52.4121097,1.50585938 51.9563805,1.50585938 C51.4811201,1.50585938 51.1024309,1.61979167 50.8203128,1.84765625 C50.5381947,2.07552083 50.3971357,2.38802083 50.3971357,2.78515625 C50.3971357,3.10199653 50.4861114,3.37326389 50.6640628,3.59895833 C50.8420142,3.82465278 51.1480038,4.02539062 51.5820315,4.20117188 C52.0030385,4.37044271 52.2808163,4.51692708 52.4153649,4.640625 C52.5499135,4.76432292 52.6171878,4.91514757 52.6171878,5.09309896 C52.6171878,5.2905816 52.5439456,5.44791667 52.3974612,5.56510417 C52.2509769,5.68229167 52.0236548,5.74088542 51.7154951,5.74088542 C51.5049916,5.74088542 51.2776696,5.71158854 51.0335289,5.65299479 C50.7893883,5.59440104 50.5588111,5.5141059 50.3417972,5.41210938 L50.3417972,5.41210938 L50.3417972,6.14778646 C50.6846791,6.31488715 51.1252173,6.3984375 51.6634118,6.3984375 Z M55.9969819,6.33333333 L55.9969819,4.55273438 L56.4917735,4.55273438 C57.092902,4.55273438 57.5562267,4.4203559 57.8817475,4.15559896 C58.2072683,3.89084201 58.3700287,3.50998264 58.3700287,3.01302083 C58.3700287,2.53993056 58.2219168,2.18185764 57.9256928,1.93880208 C57.6294688,1.69574653 57.1840478,1.57421875 56.5894298,1.57421875 L56.5894298,1.57421875 L55.2189871,1.57421875 L55.2189871,6.33333333 L55.9969819,6.33333333 Z M56.4103933,3.8984375 L55.9969819,3.8984375 L55.9969819,2.22526042 L56.5373464,2.22526042 C56.8910791,2.22526042 57.1514957,2.29253472 57.3185964,2.42708333 C57.4856971,2.56163194 57.5692475,2.765625 57.5692475,3.0390625 C57.5692475,3.33420139 57.4759315,3.55121528 57.2892996,3.69010417 C57.1026676,3.82899306 56.8096989,3.8984375 56.4103933,3.8984375 L56.4103933,3.8984375 Z M62.2283384,6.3984375 C62.9379738,6.3984375 63.4864764,6.18359375 63.8738462,5.75390625 C64.261216,5.32421875 64.4549009,4.72200521 64.4549009,3.94726562 C64.4549009,3.1703559 64.2617586,2.56814236 63.8754738,2.140625 C63.4891891,1.71310764 62.9423141,1.49934896 62.2348488,1.49934896 C61.5165329,1.49934896 60.96369,1.70985243 60.5763202,2.13085938 C60.1889504,2.55186632 59.9952655,3.15516493 59.9952655,3.94075521 C59.9952655,4.72634549 60.1878653,5.33235677 60.573065,5.75878906 C60.9582646,6.18522135 61.5100224,6.3984375 62.2283384,6.3984375 Z M62.2283384,5.734375 C61.7639287,5.734375 61.4134513,5.58300781 61.1769061,5.28027344 C60.940361,4.97753906 60.8220884,4.53320312 60.8220884,3.94726562 C60.8220884,3.36349826 60.9409035,2.92078993 61.1785337,2.61914062 C61.4161639,2.31749132 61.768269,2.16666667 62.2348488,2.16666667 C62.6970884,2.16666667 63.0448532,2.31749132 63.2781431,2.61914062 C63.511433,2.92078993 63.628078,3.36349826 63.628078,3.94726562 C63.628078,4.53971354 63.510348,4.98567708 63.2748879,5.28515625 C63.0394278,5.58463542 62.690578,5.734375 62.2283384,5.734375 Z M67.0925075,6.33333333 L67.0925075,3.859375 C67.0925075,3.52517361 67.0773165,3.15625 67.0469346,2.75260417 L67.0469346,2.75260417 L67.0306585,2.54101562 L67.0567002,2.54101562 L69.397195,6.33333333 L70.350971,6.33333333 L70.350971,1.57421875 L69.6380804,1.57421875 L69.6388616,4.18144531 C69.640945,4.34411892 69.647195,4.55088976 69.6576116,4.80175781 C69.6706325,5.11534288 69.679313,5.29709201 69.6836533,5.34700521 L69.6836533,5.34700521 L69.6641221,5.34700521 L67.3301377,1.57421875 L66.3861273,1.57421875 L66.3861273,6.33333333 L67.0925075,6.33333333 Z M73.5354526,6.3984375 C74.073647,6.3984375 74.495739,6.27799479 74.8017286,6.03710938 C75.1077182,5.79622396 75.260713,5.46419271 75.260713,5.04101562 C75.260713,4.82617188 75.2227356,4.63953993 75.1467807,4.48111979 C75.0708258,4.32269965 74.9514682,4.18055556 74.7887078,4.0546875 C74.6259474,3.92881944 74.369871,3.79318576 74.0204786,3.64778646 C73.7101488,3.51974826 73.495305,3.41666667 73.3759474,3.33854167 C73.2565897,3.26041667 73.1708693,3.17740885 73.1187859,3.08951823 C73.0667026,3.0016276 73.0406609,2.89583333 73.0406609,2.77213542 C73.0406609,2.59201389 73.1057651,2.44715712 73.2359734,2.3375651 C73.3661818,2.22797309 73.557154,2.17317708 73.8088901,2.17317708 C74.1409213,2.17317708 74.5185255,2.26215278 74.9417026,2.44010417 L74.9417026,2.44010417 L75.1890984,1.80533854 C74.7377095,1.60568576 74.2841505,1.50585938 73.8284213,1.50585938 C73.3531609,1.50585938 72.9744717,1.61979167 72.6923536,1.84765625 C72.4102356,2.07552083 72.2691765,2.38802083 72.2691765,2.78515625 C72.2691765,3.10199653 72.3581522,3.37326389 72.5361036,3.59895833 C72.714055,3.82465278 73.0200446,4.02539062 73.4540724,4.20117188 C73.8750793,4.37044271 74.1528571,4.51692708 74.2874057,4.640625 C74.4219543,4.76432292 74.4892286,4.91514757 74.4892286,5.09309896 C74.4892286,5.2905816 74.4159864,5.44791667 74.2695021,5.56510417 C74.1230177,5.68229167 73.8956956,5.74088542 73.5875359,5.74088542 C73.3770324,5.74088542 73.1497104,5.71158854 72.9055698,5.65299479 C72.6614291,5.59440104 72.4308519,5.5141059 72.213838,5.41210938 L72.213838,5.41210938 L72.213838,6.14778646 C72.5567199,6.31488715 72.9972581,6.3984375 73.5354526,6.3984375 Z M79.7830852,6.33333333 L79.7830852,5.67252604 L77.8690227,5.67252604 L77.8690227,4.17838542 L79.6626425,4.17838542 L79.6626425,3.52734375 L77.8690227,3.52734375 L77.8690227,2.23177083 L79.7830852,2.23177083 L79.7830852,1.57421875 L77.0910279,1.57421875 L77.0910279,6.33333333 L79.7830852,6.33333333 Z" id="path-1"></path>
        <path d="M8.21777344,27.5 L8.21777344,14.2724609 L12.5793457,14.2724609 L12.5793457,11.4379883 L0.450439453,11.4379883 L0.450439453,14.2724609 L4.81201172,14.2724609 L4.81201172,27.5 L8.21777344,27.5 Z M18.1384277,27.5 L18.1384277,21.2487793 C18.1384277,20.2600098 18.4368896,19.4909668 19.0338135,18.9416504 C19.6307373,18.392334 20.4638672,18.1176758 21.5332031,18.1176758 C21.9213867,18.1176758 22.2509766,18.1542969 22.5219727,18.2275391 L22.5219727,18.2275391 L22.7746582,15.0854492 C22.4743652,15.0195313 22.097168,14.9865723 21.6430664,14.9865723 C20.8813477,14.9865723 20.1763916,15.1971436 19.5281982,15.6182861 C18.8800049,16.0394287 18.3654785,16.5942383 17.9846191,17.2827148 L17.9846191,17.2827148 L17.8198242,17.2827148 L17.3254395,15.2172852 L14.7875977,15.2172852 L14.7875977,27.5 L18.1384277,27.5 Z M27.9931641,27.7197266 C28.9526367,27.7197266 29.730835,27.5823975 30.3277588,27.3077393 C30.9246826,27.0330811 31.505127,26.5405273 32.0690918,25.8300781 L32.0690918,25.8300781 L32.1569824,25.8300781 L32.8051758,27.5 L35.1452637,27.5 L35.1452637,19.3151855 C35.1452637,17.8503418 34.7058105,16.7590332 33.8269043,16.0412598 C32.947998,15.3234863 31.6845703,14.9645996 30.0366211,14.9645996 C28.3154297,14.9645996 26.7480469,15.3344727 25.3344727,16.0742188 L25.3344727,16.0742188 L26.4440918,18.3374023 C27.7697754,17.7441406 28.9233398,17.4475098 29.9047852,17.4475098 C31.1791992,17.4475098 31.8164062,18.0700684 31.8164062,19.3151855 L31.8164062,19.3151855 L31.8164062,19.8535156 L29.6850586,19.9194336 C27.8466797,19.9853516 26.4715576,20.3277588 25.5596924,20.9466553 C24.6478271,21.5655518 24.1918945,22.5268555 24.1918945,23.8305664 C24.1918945,25.0756836 24.5306396,26.0351563 25.2081299,26.7089844 C25.8856201,27.3828125 26.8139648,27.7197266 27.9931641,27.7197266 Z M29.2565918,25.2697754 C28.1726074,25.2697754 27.6306152,24.7973633 27.6306152,23.8525391 C27.6306152,23.1933594 27.8686523,22.7026367 28.3447266,22.3803711 C28.8208008,22.0581055 29.5458984,21.8823242 30.5200195,21.8530273 L30.5200195,21.8530273 L31.8164062,21.809082 L31.8164062,22.8198242 C31.8164062,23.5595703 31.5838623,24.152832 31.1187744,24.5996094 C30.6536865,25.0463867 30.032959,25.2697754 29.2565918,25.2697754 Z M44.9560547,27.5 L49.6362305,15.2172852 L46.1315918,15.2172852 L43.7695312,22.2155762 C43.4765625,23.1896973 43.3117676,24.0283203 43.2751465,24.7314453 L43.2751465,24.7314453 L43.2092285,24.7314453 C43.1433105,23.9404297 42.9785156,23.1018066 42.7148438,22.2155762 L42.7148438,22.2155762 L40.3417969,15.2172852 L36.8371582,15.2172852 L41.517334,27.5 L44.9560547,27.5 Z M56.953125,27.7197266 C57.9125977,27.7197266 58.7255859,27.6483154 59.3920898,27.5054932 C60.0585938,27.3626709 60.6848145,27.1447754 61.270752,26.8518066 L61.270752,26.8518066 L61.270752,24.2590332 C60.5529785,24.5959473 59.864502,24.8413086 59.2053223,24.9951172 C58.5461426,25.1489258 57.8466797,25.2258301 57.1069336,25.2258301 C56.1547852,25.2258301 55.4150391,24.9584961 54.8876953,24.4238281 C54.3603516,23.8891602 54.0783691,23.145752 54.041748,22.1936035 L54.041748,22.1936035 L61.9628906,22.1936035 L61.9628906,20.567627 C61.9628906,18.8244629 61.4794922,17.4584961 60.5126953,16.4697266 C59.5458984,15.480957 58.1945801,14.9865723 56.4587402,14.9865723 C54.642334,14.9865723 53.2196045,15.5487061 52.1905518,16.6729736 C51.161499,17.7972412 50.6469727,19.3884277 50.6469727,21.4465332 C50.6469727,23.4460449 51.2036133,24.9914551 52.3168945,26.0827637 C53.4301758,27.1740723 54.9755859,27.7197266 56.953125,27.7197266 Z M58.8208008,19.9633789 L54.1186523,19.9633789 C54.1772461,19.1357422 54.407959,18.4967041 54.810791,18.0462646 C55.213623,17.5958252 55.7702637,17.3706055 56.4807129,17.3706055 C57.1911621,17.3706055 57.755127,17.5958252 58.1726074,18.0462646 C58.5900879,18.4967041 58.8061523,19.1357422 58.8208008,19.9633789 L58.8208008,19.9633789 Z M68.0383301,27.5 L68.0383301,10.4052734 L64.6875,10.4052734 L64.6875,27.5 L68.0383301,27.5 Z M74.9047852,27.5 L74.9047852,10.4052734 L71.5539551,10.4052734 L71.5539551,27.5 L74.9047852,27.5 Z M83.9794922,27.7197266 C84.9389648,27.7197266 85.7519531,27.6483154 86.418457,27.5054932 C87.0849609,27.3626709 87.7111816,27.1447754 88.2971191,26.8518066 L88.2971191,26.8518066 L88.2971191,24.2590332 C87.5793457,24.5959473 86.8908691,24.8413086 86.2316895,24.9951172 C85.5725098,25.1489258 84.8730469,25.2258301 84.1333008,25.2258301 C83.1811523,25.2258301 82.4414062,24.9584961 81.9140625,24.4238281 C81.3867188,23.8891602 81.1047363,23.145752 81.0681152,22.1936035 L81.0681152,22.1936035 L88.9892578,22.1936035 L88.9892578,20.567627 C88.9892578,18.8244629 88.5058594,17.4584961 87.5390625,16.4697266 C86.5722656,15.480957 85.2209473,14.9865723 83.4851074,14.9865723 C81.6687012,14.9865723 80.2459717,15.5487061 79.2169189,16.6729736 C78.1878662,17.7972412 77.6733398,19.3884277 77.6733398,21.4465332 C77.6733398,23.4460449 78.2299805,24.9914551 79.3432617,26.0827637 C80.456543,27.1740723 82.0019531,27.7197266 83.9794922,27.7197266 Z M85.847168,19.9633789 L81.1450195,19.9633789 C81.2036133,19.1357422 81.4343262,18.4967041 81.8371582,18.0462646 C82.2399902,17.5958252 82.7966309,17.3706055 83.5070801,17.3706055 C84.2175293,17.3706055 84.7814941,17.5958252 85.1989746,18.0462646 C85.6164551,18.4967041 85.8325195,19.1357422 85.847168,19.9633789 L85.847168,19.9633789 Z M95.0646973,27.5 L95.0646973,21.2487793 C95.0646973,20.2600098 95.3631592,19.4909668 95.960083,18.9416504 C96.5570068,18.392334 97.3901367,18.1176758 98.4594727,18.1176758 C98.8476562,18.1176758 99.1772461,18.1542969 99.4482422,18.2275391 L99.4482422,18.2275391 L99.7009277,15.0854492 C99.4006348,15.0195313 99.0234375,14.9865723 98.5693359,14.9865723 C97.8076172,14.9865723 97.1026611,15.1971436 96.4544678,15.6182861 C95.8062744,16.0394287 95.291748,16.5942383 94.9108887,17.2827148 L94.9108887,17.2827148 L94.7460938,17.2827148 L94.251709,15.2172852 L91.7138672,15.2172852 L91.7138672,27.5 L95.0646973,27.5 Z M111.599121,27.7197266 C113.459473,27.7197266 114.911499,27.3022461 115.9552,26.4672852 C116.998901,25.6323242 117.520752,24.4897461 117.520752,23.0395508 C117.520752,21.9921875 117.242432,21.1077881 116.685791,20.3863525 C116.12915,19.664917 115.100098,18.9453125 113.598633,18.2275391 C112.463379,17.6855469 111.743774,17.3101807 111.439819,17.1014404 C111.135864,16.8927002 110.914307,16.6766357 110.775146,16.4532471 C110.635986,16.2298584 110.566406,15.9680176 110.566406,15.6677246 C110.566406,15.1843262 110.738525,14.7924805 111.082764,14.4921875 C111.427002,14.1918945 111.921387,14.041748 112.565918,14.041748 C113.10791,14.041748 113.659058,14.1113281 114.21936,14.2504883 C114.779663,14.3896484 115.488281,14.6350098 116.345215,14.9865723 L116.345215,14.9865723 L117.443848,12.3388672 C116.616211,11.9799805 115.823364,11.7016602 115.065308,11.5039063 C114.307251,11.3061523 113.510742,11.2072754 112.675781,11.2072754 C110.976562,11.2072754 109.645386,11.6137695 108.682251,12.4267578 C107.719116,13.2397461 107.237549,14.3566895 107.237549,15.7775879 C107.237549,16.5319824 107.384033,17.1911621 107.677002,17.755127 C107.969971,18.3190918 108.361816,18.8134766 108.852539,19.2382813 C109.343262,19.6630859 110.079346,20.1062012 111.060791,20.567627 C112.108154,21.0656738 112.802124,21.4282227 113.1427,21.6552734 C113.483276,21.8823242 113.741455,22.1185303 113.917236,22.3638916 C114.093018,22.6092529 114.180908,22.8894043 114.180908,23.2043457 C114.180908,23.7683105 113.981323,24.1931152 113.582153,24.4787598 C113.182983,24.7644043 112.609863,24.9072266 111.862793,24.9072266 C111.240234,24.9072266 110.553589,24.8083496 109.802856,24.6105957 C109.052124,24.4128418 108.134766,24.0722656 107.050781,23.5888672 L107.050781,23.5888672 L107.050781,26.7529297 C108.369141,27.3974609 109.885254,27.7197266 111.599121,27.7197266 Z M124.464111,27.7197266 C125.306396,27.7197266 126.057129,27.5640869 126.716309,27.2528076 C127.375488,26.9415283 127.884521,26.5002441 128.243408,25.9289551 L128.243408,25.9289551 L128.419189,25.9289551 L128.869629,27.5 L131.44043,27.5 L131.44043,15.2172852 L128.0896,15.2172852 L128.0896,20.9960938 C128.0896,22.4462891 127.880859,23.4844971 127.463379,24.1107178 C127.045898,24.7369385 126.368408,25.0500488 125.430908,25.0500488 C124.742432,25.0500488 124.240723,24.8284912 123.925781,24.385376 C123.61084,23.9422607 123.453369,23.2775879 123.453369,22.3913574 L123.453369,22.3913574 L123.453369,15.2172852 L120.102539,15.2172852 L120.102539,23.2263184 C120.102539,24.6765137 120.46875,25.7879639 121.201172,26.5606689 C121.933594,27.333374 123.02124,27.7197266 124.464111,27.7197266 Z M138.306885,32.9052734 L138.306885,27.9284668 C138.306885,27.767334 138.248291,27.1740723 138.131104,26.1486816 L138.131104,26.1486816 L138.306885,26.1486816 C139.127197,27.1960449 140.258789,27.7197266 141.70166,27.7197266 C142.661133,27.7197266 143.496094,27.467041 144.206543,26.9616699 C144.916992,26.4562988 145.464478,25.7202148 145.848999,24.753418 C146.233521,23.7866211 146.425781,22.6477051 146.425781,21.3366699 C146.425781,19.3444824 146.015625,17.7880859 145.195312,16.6674805 C144.375,15.546875 143.239746,14.9865723 141.789551,14.9865723 C140.251465,14.9865723 139.090576,15.5944824 138.306885,16.8103027 L138.306885,16.8103027 L138.153076,16.8103027 L137.680664,15.2172852 L134.956055,15.2172852 L134.956055,32.9052734 L138.306885,32.9052734 Z M140.756836,25.0061035 C139.907227,25.0061035 139.286499,24.720459 138.894653,24.1491699 C138.502808,23.5778809 138.306885,22.6330566 138.306885,21.3146973 L138.306885,21.3146973 L138.306885,20.9521484 C138.321533,19.7802734 138.519287,18.9398193 138.900146,18.4307861 C139.281006,17.9217529 139.885254,17.6672363 140.712891,17.6672363 C141.503906,17.6672363 142.084351,17.9693604 142.454224,18.5736084 C142.824097,19.1778564 143.009033,20.0842285 143.009033,21.2927246 C143.009033,23.7683105 142.258301,25.0061035 140.756836,25.0061035 Z M152.545166,32.9052734 L152.545166,27.9284668 C152.545166,27.767334 152.486572,27.1740723 152.369385,26.1486816 L152.369385,26.1486816 L152.545166,26.1486816 C153.365479,27.1960449 154.49707,27.7197266 155.939941,27.7197266 C156.899414,27.7197266 157.734375,27.467041 158.444824,26.9616699 C159.155273,26.4562988 159.702759,25.7202148 160.08728,24.753418 C160.471802,23.7866211 160.664062,22.6477051 160.664062,21.3366699 C160.664062,19.3444824 160.253906,17.7880859 159.433594,16.6674805 C158.613281,15.546875 157.478027,14.9865723 156.027832,14.9865723 C154.489746,14.9865723 153.328857,15.5944824 152.545166,16.8103027 L152.545166,16.8103027 L152.391357,16.8103027 L151.918945,15.2172852 L149.194336,15.2172852 L149.194336,32.9052734 L152.545166,32.9052734 Z M154.995117,25.0061035 C154.145508,25.0061035 153.52478,24.720459 153.132935,24.1491699 C152.741089,23.5778809 152.545166,22.6330566 152.545166,21.3146973 L152.545166,21.3146973 L152.545166,20.9521484 C152.559814,19.7802734 152.757568,18.9398193 153.138428,18.4307861 C153.519287,17.9217529 154.123535,17.6672363 154.951172,17.6672363 C155.742188,17.6672363 156.322632,17.9693604 156.692505,18.5736084 C157.062378,19.1778564 157.247314,20.0842285 157.247314,21.2927246 C157.247314,23.7683105 156.496582,25.0061035 154.995117,25.0061035 Z M168.607178,27.7197266 C170.489502,27.7197266 171.958008,27.1557617 173.012695,26.027832 C174.067383,24.8999023 174.594727,23.3361816 174.594727,21.3366699 C174.594727,20.0476074 174.353027,18.9233398 173.869629,17.9638672 C173.38623,17.0043945 172.694092,16.2683105 171.793213,15.7556152 C170.892334,15.2429199 169.852295,14.9865723 168.673096,14.9865723 C166.776123,14.9865723 165.303955,15.5432129 164.256592,16.6564941 C163.209229,17.7697754 162.685547,19.329834 162.685547,21.3366699 C162.685547,22.6257324 162.927246,23.7536621 163.410645,24.720459 C163.894043,25.6872559 164.586182,26.428833 165.487061,26.9451904 C166.387939,27.4615479 167.427979,27.7197266 168.607178,27.7197266 Z M168.651123,25.0280762 C167.750244,25.0280762 167.10022,24.7167969 166.70105,24.0942383 C166.30188,23.4716797 166.102295,22.5524902 166.102295,21.3366699 C166.102295,20.1135254 166.300049,19.1998291 166.695557,18.5955811 C167.091064,17.991333 167.735596,17.689209 168.62915,17.689209 C169.530029,17.689209 170.178223,17.9931641 170.57373,18.6010742 C170.969238,19.2089844 171.166992,20.1208496 171.166992,21.3366699 C171.166992,22.5598145 170.971069,23.480835 170.579224,24.0997314 C170.187378,24.7186279 169.544678,25.0280762 168.651123,25.0280762 Z M180.714111,27.5 L180.714111,21.2487793 C180.714111,20.2600098 181.012573,19.4909668 181.609497,18.9416504 C182.206421,18.392334 183.039551,18.1176758 184.108887,18.1176758 C184.49707,18.1176758 184.82666,18.1542969 185.097656,18.2275391 L185.097656,18.2275391 L185.350342,15.0854492 C185.050049,15.0195313 184.672852,14.9865723 184.21875,14.9865723 C183.457031,14.9865723 182.752075,15.1971436 182.103882,15.6182861 C181.455688,16.0394287 180.941162,16.5942383 180.560303,17.2827148 L180.560303,17.2827148 L180.395508,17.2827148 L179.901123,15.2172852 L177.363281,15.2172852 L177.363281,27.5 L180.714111,27.5 Z M191.78833,27.7197266 C193.00415,27.7197266 194.029541,27.532959 194.864502,27.1594238 L194.864502,27.1594238 L194.864502,24.6655273 C194.044189,24.921875 193.341064,25.0500488 192.755127,25.0500488 C192.315674,25.0500488 191.96228,24.9365234 191.694946,24.7094727 C191.427612,24.4824219 191.293945,24.1308594 191.293945,23.6547852 L191.293945,23.6547852 L191.293945,17.7331543 L194.732666,17.7331543 L194.732666,15.2172852 L191.293945,15.2172852 L191.293945,12.6025391 L189.151611,12.6025391 L188.184814,15.1953125 L186.339111,16.315918 L186.339111,17.7331543 L187.943115,17.7331543 L187.943115,23.6547852 C187.943115,25.0097656 188.248901,26.026001 188.860474,26.7034912 C189.472046,27.3809814 190.447998,27.7197266 191.78833,27.7197266 Z" id="path-2"></path>
    </defs>
    <g id="Page-1" stroke="none" stroke-width="1" fill="none" fill-rule="evenodd">
        <g id="Artboard">
            <g id="traveller-support">
                <g>
                    <g id="Group" transform="translate(67.500000, 4.166667)" fill-rule="nonzero">
                        <g id="Group-2">
                            <g id="COVID-19RESPONSE">
                                <use fill="#000000" xlink:href="#path-1"></use>
                                <use fill="#FFFFFF" xlink:href="#path-1"></use>
                            </g>
                            <g id="TravellerSupport">
                                <use fill="#000000" xlink:href="#path-2"></use>
                                <use fill="#FFFFFF" xlink:href="#path-2"></use>
                            </g>
                        </g>
                    </g>
                    <g id="Logo" transform="translate(0.000000, 6.666667)" fill-rule="nonzero">
                        <path d="M5.986,22.6953333 C12.266,22.6953333 20.948,26.2353333 27.2526667,26.2353333 C31.748,26.2353333 36.1453333,25.0413333 38.632,23.2713333 C38.8062288,22.2170881 38.8954051,21.1505402 38.8990015,20.082 C38.9391469,13.2290768 35.3063794,6.87932285 29.3782286,3.4411224 C23.4500777,0.00292194956 16.134589,0.00292194956 10.2064381,3.4411224 C4.27828723,6.87932285 0.645519725,13.2290768 0.685665191,20.082 C0.68280855,21.1414484 0.773159313,22.1991101 0.956,23.2426667 C2.61347501,22.9137423 4.29657079,22.7305982 5.986,22.6953333 Z" id="Path_350" fill="#FFFFFF"></path>
                        <g id="Group_15" transform="translate(0.872000, 0.098667)" fill="#FDB913">
                            <polygon id="Path_351" points="31.2726667 15.558 32.0173333 15.8673333 33.7033333 14.7013333"></polygon>
                            <path d="M3.10466667,14.252 L1.124,13.5493333 L1.22266667,13.3106667 L3.45666667,14.0553333 L3.47066667,14.0553333 L3.766,13.8866667 L3.87866667,13.8166667 L1.43266667,12.7766667 L1.53133333,12.524 L6.998,14.7153333 L7.18066667,14.6453333 L1.77,12.018 L1.89666667,11.7653333 L7.61466667,14.432 L7.69866667,14.39 L2.14933333,11.2433333 L2.262,11.0046667 L10.2666667,15.362 C10.3366667,15.2353333 10.4666667,15.0246667 10.5333333,14.8953333 C8.63034348,13.1168596 6.63253549,11.4426356 4.54866667,9.88 C6.72781622,11.3046675 8.98366691,12.6084139 11.306,13.7853333 C11.4326667,13.6306667 11.5306667,13.5046667 11.6573333,13.364 L4.83266667,7.354 L5.01533333,7.17133333 L10.5366667,11.878 L5.42266667,6.75 L5.62266667,6.55 L11.356,12.0993333 L6.01266667,6.174 L6.22333333,5.99133333 L11.1566667,11.274 L6.64533333,5.6 L6.84533333,5.41733333 L12.6193333,12.442 C12.774,12.3153333 12.886,12.2173333 13.0546667,12.0906667 C11.9634105,9.73923647 10.7433366,7.44976182 9.4,5.23266667 C10.8812273,7.35862497 12.4757536,9.4033574 14.1766667,11.358 C14.3453333,11.2593333 14.514,11.1753333 14.6826667,11.0913333 L14.6546667,11.0773333 L10.5926667,3 L10.8313333,2.88733333 L14.1893333,9.308 L11.3653333,2.66133333 L11.618,2.54866667 L14.8666667,9.84066667 L12.124,2.33866667 L12.3766667,2.24 L14.9766667,8.99733333 L12.9393333,2.04333333 L13.192,1.95933333 L15.8893333,10.5853333 L15.8893333,10.6133333 L15.8893333,10.6133333 L16.4373333,10.4446667 C16.3008477,7.87058762 16.0289157,5.30548089 15.6226667,2.76 C16.194761,5.2738973 16.9029142,7.75488155 17.744,10.192 C17.9266667,10.164 18.1233333,10.15 18.32,10.136 L18.32,10.122 L18.348,10.122 L18.334,10.108 L17.5753333,1.088 L17.842,1.074 L18.5446667,8.29533333 L18.418,1.06 L18.6986667,1.046 L18.9793333,9.026 L19.2613333,1.046 L19.542,1.06 L19.4153333,8.29533333 L20.118,1.074 L20.3846667,1.088 L19.6513333,10.0933333 L19.6373333,10.1073333 L19.6513333,10.1073333 C19.834,10.1213333 20.0306667,10.1353333 20.2133333,10.1633333 C21.0564444,7.73153372 21.7657289,5.25538069 22.338,2.746 C21.9311902,5.28671021 21.6592537,7.84718652 21.5233333,10.4166667 C21.7097259,10.459981 21.8928438,10.516342 22.0713333,10.5853333 L24.7686667,1.98533333 L25.0213333,2.06933333 L22.97,9.026 L25.5686667,2.26666667 L25.8213333,2.36533333 L23.0966667,9.86666667 L26.3413333,2.57733333 L26.594,2.69 L23.7273333,9.34933333 L27.0853333,2.92866667 L27.324,3.04133333 L23.2933333,11.0906667 L23.2933333,11.0906667 C23.462,11.1746667 23.6166667,11.2593333 23.7853333,11.3433333 C25.4768084,9.3982395 27.0617922,7.36304203 28.5333333,5.24666667 C27.1967329,7.44951226 25.9820179,9.72404268 24.8946667,12.06 C25.0505732,12.1740398 25.2005468,12.2959768 25.344,12.4253333 L31.048,5.47133333 L31.248,5.654 L26.7333333,11.33 L31.6666667,6.04733333 L31.8773333,6.23 L26.5386667,12.1586667 L32.272,6.60933333 L32.472,6.80933333 L27.3533333,11.92 L32.8746667,7.21333333 L33.0573333,7.396 L26.2993333,13.3386667 L26.2993333,13.3386667 C26.412,13.4653333 26.524,13.6053333 26.6366667,13.746 C28.9404804,12.5778381 31.1776974,11.2827361 33.338,9.86666667 C31.2709796,11.4187215 29.2873308,13.0788091 27.3953333,14.84 C27.4793333,14.9806667 27.606,15.2193333 27.6906667,15.36 L35.586,11.0613333 L35.6986667,11.3 L29.3906667,14.8826667 L35.9513333,11.834 L36.078,12.0866667 L29.966,15.0666667 L30.0786667,15.1086667 L36.288,12.594 L36.3866667,12.8466667 L30.6126667,15.3053333 L30.7253333,15.3473333 L34.574,14.0666667 L35.15,13.6593333 L35.35,13.8 L36.6166667,13.3786667 L36.7153333,13.6173333 L35.614,14 L37.2,15.2073333 L37.706,15.488 C35.6009275,6.70575731 27.6962836,0.550868585 18.6659665,0.662627959 C9.63564944,0.774387333 1.88574926,7.12301699 -0.00133333333,15.9546667 C0.0266666667,15.9406667 0.0406666667,15.9266667 0.0686666667,15.9266667 L0.307333333,15.828 L0.448,15.758 L3.10466667,14.252 Z" id="Path_352"></path>
                        </g>
                        <path d="M0.76,23.6373333 C2.48751358,23.2993193 4.24031153,23.1066453 6,23.0613333 C12.28,23.0613333 20.962,26.6013333 27.2666667,26.6013333 C31.8886667,26.6013333 36.4,25.3346667 38.8566667,23.4826667 C39.0549732,22.3696568 39.1538077,21.2412033 39.1520244,20.1106667 C39.1538041,18.5868788 38.9747745,17.0682604 38.6186667,15.5866667 L35.9946667,14.126 L32.918,16.2893333 L30.8386667,15.4893333 C30.136,15.8406667 25.8093333,18.7346667 25.8093333,18.7346667 L24.1513333,17.526 L22.37,17.1746667 L19.996,15.4466667 L17.2706667,17.3133333 C17.2706667,17.3133333 14.222,19.0833333 14.124,19.0833333 C14.026,19.0833333 10.4573333,16.2593333 10.4573333,16.2593333 L8.78533333,14.5313333 C8.50466667,14.714 7.38066667,15.22 7.38066667,15.22 L7.32466667,15.234 L6.23666667,14.8986667 L4.918,14.196 L0.942666667,16.0226667 C0.914666667,16.0366667 0.900666667,16.0506667 0.872666667,16.0506667 C0.3324961,18.5470754 0.294197701,21.1259853 0.76,23.6373333 L0.76,23.6373333 Z" id="Path_353" fill="#004B8D"></path>
                    </g>
                    <rect id="Rectangle" fill="#FCBA19" x="53.3333333" y="0" width="1" height="40"></rect>
                </g>
            </g>
        </g>
    </g>
</svg>